<?xml version="1.0" standalone="no"?>
<!DOCTYPE svg PUBLIC "-//W3C//DTD SVG 1.1//EN" "http://www.w3.org/Graphics/SVG/1.1/DTD/svg11.dtd" >
<svg>
<metadata>
Created by FontForge 20120731 at Wed Mar 23 21:18:39 2016
 By ,,,
Typeface: Copyright (c)1995 International Typeface Corporation. Data: Copyright (c) 1995 Microsoft Corportation. All rights reserved.
</metadata>
<defs>
<font id="ErasITC-Light" horiz-adv-x="1098" >
  <font-face 
    font-family="Eras Light ITC"
    font-weight="400"
    font-stretch="normal"
    units-per-em="2048"
    panose-1="2 11 4 2 3 5 4 2 8 4"
    ascent="1638"
    descent="-410"
    x-height="1010"
    cap-height="1365"
    bbox="-371 -512 2175 1810"
    underline-thickness="102"
    underline-position="-103"
    unicode-range="U+0020-F002"
  />
<missing-glyph horiz-adv-x="2048" 
d="M256 0v1536h1536v-1536h-1536zM384 128h1280v1280h-1280v-1280z" />
    <glyph glyph-name=".notdef" horiz-adv-x="2048" 
d="M256 0v1536h1536v-1536h-1536zM384 128h1280v1280h-1280v-1280z" />
    <glyph glyph-name=".null" horiz-adv-x="0" 
 />
    <glyph glyph-name="nonmarkingreturn" horiz-adv-x="682" 
 />
    <glyph glyph-name="space" unicode=" " horiz-adv-x="512" 
 />
    <glyph glyph-name="exclam" unicode="!" horiz-adv-x="489" 
d="M192 208l19 661l9 375q1 76 1 121q26 -1 45 -1q21 0 46 1l-10 -144l-46 -1013q-17 2 -32 2q-17 0 -32 -2zM165 0q3 41 3.5 65t1.5 44q36 -1 56 -1q21 0 56 1q-2 -30 -3 -57.5t-3 -51.5q-35 1 -55 1q-21 0 -56 -1z" />
    <glyph glyph-name="quotedbl" unicode="&#x22;" horiz-adv-x="498" 
d="M143 1051q2 71 2 157q0 69 -2 157q26 -1 45 -1q21 0 46 1q-19 -167 -27 -314q-16 2 -32 2t-32 -2zM319 1051q2 71 2 157q0 69 -3 157q26 -1 46 -1t45 1q-19 -167 -27 -314q-16 2 -31 2q-17 0 -32 -2z" />
    <glyph glyph-name="numbersign" unicode="#" 
d="M331 531l-229 -3q7 23 13 63l226 -3l33 189l-229 -3q6 19 13 63l226 -3l91 531q20 -1 38 -1q19 0 39 1l-96 -531l127 -1l129 1l91 531q19 -1 38 -1t38 1l-95 -531l226 3q-8 -31 -13 -63l-223 3l-33 -189l226 3q-8 -27 -13 -63l-223 3l-91 -531q-20 1 -38 1q-19 0 -39 -1
l96 532h-104h-152l-91 -532q-20 1 -38 1q-19 0 -38 -1zM446 778l-33 -190l127 -1h46l43 1h40l33 190h-193h-63z" />
    <glyph glyph-name="dollar" unicode="$" 
d="M182 157q71 -37 113.5 -55t91.5 -29t101 -11q82 0 148.5 27.5t108.5 90.5t42 137q0 54 -20.5 95t-57.5 79.5t-205 180.5l-124 107q-41 37 -77.5 87.5t-52.5 100t-16 101.5q0 54 19 105.5t60.5 93.5t90 63t140.5 35q2 37 2 73t-1 86q26 -2 40 -2q16 0 41 2
q-10 -92 -11 -157q68 -5 111.5 -13.5t100.5 -25.5q2 -46 9 -87q-82 34 -138 45.5t-110 11.5q-135 0 -203.5 -69.5t-68.5 -161.5q0 -37 10.5 -75t43 -83t86.5 -94l105 -94l68 -59q54 -46 101 -91.5t72 -80.5t37 -62t18 -57t6 -60q0 -43 -13 -84.5t-37.5 -79t-59.5 -66.5
t-75.5 -46.5t-119.5 -34.5q-1 -39 -1 -82q0 -15 2 -77q-26 2 -42 2q-15 0 -41 -2l5 60q2 22 6 94q-96 7 -158.5 22.5t-141.5 49.5q0 46 -5 90z" />
    <glyph glyph-name="percent" unicode="%" horiz-adv-x="1546" 
d="M368 1379q83 0 141 -46.5t86 -135.5t28 -210q0 -140 -35.5 -261.5t-99.5 -173.5t-156 -52q-87 0 -145.5 46t-86.5 133.5t-28 194.5q0 94 15.5 186.5t51.5 168t94.5 113t134.5 37.5zM366 1326q-66 0 -120.5 -49t-83.5 -152.5t-29 -250.5q0 -112 25.5 -182t72 -104.5
t103.5 -34.5q55 0 99.5 31t74 99t41 150t11.5 162q0 115 -23.5 184.5t-67.5 108t-103 38.5zM313 0l563 890l295 475q19 -1 38 -1q21 0 39 1l-537 -849l-320 -516q-19 1 -39 1q-22 0 -39 -1zM1229 866q83 0 141 -47t86 -135.5t28 -209.5q0 -140 -35.5 -261.5t-99.5 -174
t-156 -52.5q-87 0 -145.5 46.5t-86.5 134t-28 193.5q0 95 15.5 187.5t51.5 168t94.5 113t134.5 37.5zM1227 812q-66 0 -120.5 -48.5t-83.5 -152t-29 -251.5q0 -112 25.5 -181.5t72 -104t103.5 -34.5q55 0 99.5 31t74 98.5t41 150t11.5 162.5q0 114 -23.5 184t-67.5 108
t-103 38z" />
    <glyph glyph-name="ampersand" unicode="&#x26;" horiz-adv-x="1342" 
d="M1086 555q20 -1 35 -1q16 0 35 1q-2 -94 -25 -183.5t-67 -164.5l124 -107l116 -100q-25 1 -52 1q-28 0 -52 -1l-174 153q-34 -34 -59.5 -56t-66 -44.5t-89.5 -38.5t-109.5 -25t-126.5 -9q-138 0 -242 44.5t-158.5 125t-54.5 176.5q0 51 14 100.5t50 97.5t88.5 89
t187.5 122q-47 65 -70.5 103.5t-42 81t-27.5 84t-9 78.5q0 57 24 114t73 102t115.5 66.5t138.5 21.5q51 0 100.5 -10t111.5 -38q-1 -19 -1 -36q0 -16 1 -36q-92 66 -209 66q-83 0 -150.5 -32t-102 -93.5t-34.5 -126.5q0 -66 27.5 -131t112 -178.5t221 -256t277.5 -263.5
q21 42 29.5 65.5t17.5 61t14.5 80t8.5 97.5zM976 197q-250 222 -482 496q-100 -60 -155.5 -102t-91 -88.5t-48 -87.5t-12.5 -84q0 -85 50 -153.5t141 -105.5t211 -37q56 0 108 8.5t96.5 23.5t79 35.5t55.5 41t48 53.5z" />
    <glyph glyph-name="quotesingle" unicode="'" horiz-adv-x="323" 
d="M143 1051q2 71 2 157q0 69 -2 157q26 -1 45 -1q21 0 46 1q-19 -167 -27 -314q-16 2 -32 2t-32 -2z" />
    <glyph glyph-name="parenleft" unicode="(" horiz-adv-x="609" 
d="M279 -444l-29 136q-14 66 -25 131.5t-19.5 144.5t-13 160t-4.5 165q0 330 70 638.5t114 433.5q17 -1 31 -1q15 0 31 1l-42 -147q-20 -71 -39.5 -154t-36.5 -179t-29 -198t-17.5 -203.5t-5.5 -201.5q0 -111 4.5 -204.5t14.5 -179t20 -140.5t40 -202q-16 2 -32 2
q-17 0 -32 -2z" />
    <glyph glyph-name="parenright" unicode=")" horiz-adv-x="604" 
d="M215 1365q16 -1 30 -1q16 0 31 1q32 -162 46 -249.5t23.5 -174.5t14 -168.5t4.5 -159.5q0 -298 -54.5 -572.5t-130.5 -484.5q-16 2 -32 2q-17 0 -32 -2q51 160 73.5 246t41 185.5t32.5 212.5t21 227.5t7 224.5q0 96 -5.5 191.5t-15.5 182t-20 146.5z" />
    <glyph glyph-name="asterisk" unicode="*" horiz-adv-x="1040" 
d="M273 783l207 243l-292 82q18 40 30 79l281 -112l2 311q26 -2 40 -2q16 0 41 2l-31 -311l294 107q9 -45 21 -77l-302 -81l184 -238q-42 -27 -71 -50l-155 259l-185 -259q-25 21 -64 47z" />
    <glyph glyph-name="plus" unicode="+" 
d="M120 670q5 39 5 66q98 -3 249 -4l149 -1l5 229q4 133 4 179q18 -2 35 -2q19 0 36 2q-4 -78 -19 -408h100l307 5q-5 -35 -5 -66q-99 3 -253 5l-151 1l-7 -288q-2 -79 -2 -121q-19 2 -36 2q-18 0 -36 -2q5 64 20 409l-115 -1l-99 -1z" />
    <glyph glyph-name="comma" unicode="," horiz-adv-x="399" 
d="M31 -204q68 187 104 312q34 -1 68 -1q35 0 68 1l-58 -96q-32 -51 -47 -78l-79 -138q-17 2 -28 2q-12 0 -28 -2z" />
    <glyph glyph-name="hyphen" unicode="-" horiz-adv-x="494" 
d="M-3 490q5 41 5 71q109 -5 240 -5q127 0 241 5q-5 -40 -5 -71q-109 6 -243 6q-124 0 -238 -6z" />
    <glyph glyph-name="period" unicode="." horiz-adv-x="399" 
d="M120 0q3 41 3.5 65t1.5 44q36 -1 56 -1q21 0 56 1q-2 -30 -3 -57.5t-3 -51.5q-35 1 -55 1q-21 0 -56 -1z" />
    <glyph glyph-name="slash" unicode="/" horiz-adv-x="824" 
d="M-148 -444l292 618l496 1071l52 120q25 -1 42 -1t42 1l-739 -1584l-100 -225q-25 2 -42 2q-19 0 -43 -2z" />
    <glyph glyph-name="zero" unicode="0" 
d="M588 1386q74 0 136 -22.5t116.5 -74.5t90.5 -135.5t51.5 -183t15.5 -209.5q0 -149 -27.5 -297t-84.5 -263.5t-148 -168t-208 -52.5q-67 0 -128 17.5t-118.5 65t-96.5 128.5t-57 181t-18 204q0 147 23 289q16 100 43 178.5t62.5 142t91.5 111t120.5 68.5t135.5 21z
M585 1329q-93 0 -175.5 -58.5t-132.5 -172t-68 -249.5t-18 -274q0 -109 15.5 -201t58 -171t113.5 -122.5t155 -43.5q93 0 168 52t125 163.5t70 246.5t20 272q0 154 -24.5 253.5t-64.5 163t-101 102.5t-141 39z" />
    <glyph glyph-name="one" unicode="1" 
d="M519 0q13 163 21 384l18 488q11 267 12 410l-115 -75q5 40 5 77l130 81q17 -1 32 -1q17 0 32 1l-43 -965l-5 -180q-1 -43 -1 -86q0 -53 2 -134q-26 1 -44 1t-44 -1z" />
    <glyph glyph-name="two" unicode="2" 
d="M132 0q2 27 2 51v25l243 256q143 155 230.5 258.5t153 191t102.5 158.5q26 51 34.5 84.5t8.5 68.5q0 56 -23 99t-73 77t-110.5 47.5t-122.5 13.5q-152 0 -376 -57q8 38 12 76q177 37 355 37q82 0 159 -17t135 -55.5t87 -92t29 -120.5q0 -40 -7.5 -76t-22.5 -69
q-25 -59 -71 -128.5t-157 -205.5t-232 -269l-281 -295q95 -3 186 -3l114 1l128 1l102 1q45 1 82 3l46 2q10 0 62 5q-4 -30 -4 -68q-146 1 -386 1h-261z" />
    <glyph glyph-name="three" unicode="3" 
d="M107 31q-2 40 -9 82q107 -44 192 -59.5t162 -15.5q118 0 213.5 40t156.5 121t61 188q0 44 -13 86.5t-40 79t-65 62t-81.5 38.5t-90.5 19t-116 6q-48 0 -124 -5q3 31 3 55v11q41 -7 86 -7q112 0 210 36t152 116.5t54 174.5q0 61 -24.5 115.5t-71 89.5t-111.5 50t-141 15
q-143 0 -302 -46q6 32 9 71q104 19 168 25.5t119 6.5q135 0 234.5 -36t148 -112t48.5 -173q0 -44 -10.5 -88t-31.5 -85.5t-42.5 -66.5t-49 -44.5t-63.5 -35t-115 -36.5q44 0 111 -16t119 -60t78 -109t26 -138q0 -94 -41.5 -175.5t-115 -133.5t-167 -75t-195.5 -23
q-72 0 -147.5 11t-183.5 41z" />
    <glyph glyph-name="four" unicode="4" 
d="M663 0q7 87 11.5 173t14.5 350l-293 -1l-284 -3q4 34 4 81l439 592l122 173q35 -1 62 -1q26 0 61 1q-20 -344 -36 -784l185 1q23 0 48 4q-2 -26 -2 -56v-11q-84 3 -235 4q-2 -35 -6 -211.5t-4 -221.5q0 -30 2 -90q-26 1 -44 1q-20 0 -45 -1zM691 581q4 73 6 123l17 494
l1 109l-535 -726h511z" />
    <glyph glyph-name="five" unicode="5" 
d="M163 16q-3 42 -9 72q95 -28 154 -37.5t122 -9.5q95 0 184 25t153.5 79.5t99.5 132.5t35 160q0 77 -32.5 138t-90 95.5t-126 46.5t-143.5 12q-133 0 -304 -32l55 585q3 28 10 82q250 -1 366 -1l327 1q-3 -30 -3 -58v-11l-63 5q-20 2 -67 3l-226 6q-84 1 -137 1l-129 -1
l-53 -547q91 15 145 19.5t103 4.5q137 0 238 -36.5t156 -121.5t55 -191q0 -122 -71 -233t-203 -168t-282 -57q-34 0 -89 5t-89 11t-86 20z" />
    <glyph glyph-name="six" unicode="6" 
d="M403 756q129 25 209 25q108 0 193 -44t130.5 -131.5t45.5 -194.5q0 -128 -63 -233.5t-163 -151.5t-227 -46q-88 0 -170.5 28t-138.5 84.5t-80.5 132t-24.5 149.5t16.5 162t71.5 216.5t141.5 267.5t241.5 345q25 -1 52 -1t52 1q-104 -126 -157 -198q-81 -110 -152 -233
q-74 -129 -122 -245q-39 -94 -54 -162q-16 -72 -16 -147q0 -107 38 -178t115 -117t183 -46q110 0 198 47.5t132 135t44 195.5q0 87 -34 159t-105.5 110.5t-162.5 38.5q-44 0 -91 -7.5t-133 -30.5q21 41 31 69z" />
    <glyph glyph-name="seven" unicode="7" 
d="M256 0l265 555l351 752q-177 2 -232 2q-277 0 -469 -11q4 31 5 67q161 -1 398 -1l292 1h73q-3 -29 -3 -63v-11l-519 -1120l-71 -171q-25 1 -45 1t-45 -1z" />
    <glyph glyph-name="eight" unicode="8" 
d="M391 695q-53 19 -82 35.5t-58.5 46.5t-49.5 68t-28 77t-8 77q0 110 55 201t152 138.5t222 47.5q77 0 149 -22t124 -66.5t80 -108.5t28 -144q0 -47 -9.5 -91.5t-33 -85.5t-55 -73t-62 -51.5t-94.5 -44.5q71 -18 104.5 -34t65.5 -43.5t54 -63.5t33 -82t11 -97
q0 -92 -33.5 -167.5t-95 -128t-149.5 -78.5t-182 -26q-134 0 -236.5 47.5t-151 130t-48.5 185.5q0 47 11 94t37 90.5t60.5 74t72 49.5t117.5 45zM584 1330q-152 0 -245.5 -92t-93.5 -240q0 -91 39.5 -153t111 -94.5t156.5 -32.5q97 0 175.5 41t123.5 115.5t45 172.5
q0 96 -46.5 161.5t-116 93.5t-149.5 28zM555 663q-130 0 -211 -40t-125.5 -112.5t-44.5 -162.5q0 -86 42 -158.5t132 -113t189 -40.5q102 0 192.5 44t136 125t45.5 176q0 130 -87 206t-269 76z" />
    <glyph glyph-name="nine" unicode="9" 
d="M435 0q173 231 281 417t151 321t43 242q0 70 -22.5 137t-68.5 117t-109.5 73t-135.5 23q-104 0 -189.5 -45t-132 -124t-46.5 -176q0 -59 15.5 -116.5t56 -102.5t108.5 -68.5t143 -23.5q43 0 96.5 7.5t147.5 34.5q-13 -32 -24 -73q-91 -18 -138 -22.5t-84 -4.5
q-116 0 -212 41.5t-143 123t-47 189.5q0 121 57.5 217t161.5 147.5t229 51.5q91 0 173.5 -29.5t137.5 -86.5t79 -133.5t24 -149.5q0 -63 -15.5 -147.5t-65.5 -205t-123 -248.5t-242 -386q-25 1 -53 1q-29 0 -53 -1z" />
    <glyph glyph-name="colon" unicode=":" horiz-adv-x="399" 
d="M169 901q3 41 3.5 65t1.5 44q36 -1 56 -1q21 0 56 1q-2 -30 -3 -57.5t-3 -51.5q-35 1 -55 1q-21 0 -56 -1zM120 0q3 41 3.5 65t1.5 44q36 -1 56 -1q21 0 56 1q-2 -30 -3 -57.5t-3 -51.5q-35 1 -55 1q-21 0 -56 -1z" />
    <glyph glyph-name="semicolon" unicode=";" horiz-adv-x="399" 
d="M169 901q2 41 3 65t2 44q35 -1 56 -1t56 1q-3 -30 -3.5 -57.5t-2.5 -51.5q-35 1 -56 1q-20 0 -55 -1zM31 -204q68 187 104 312q34 -1 68 -1q35 0 68 1l-58 -96q-32 -51 -47 -78l-79 -138q-17 2 -28 2q-12 0 -28 -2z" />
    <glyph glyph-name="less" unicode="&#x3c;" horiz-adv-x="1032" 
d="M959 1107v-70l-811 -353l811 -352v-70l-887 390v65z" />
    <glyph glyph-name="equal" unicode="=" 
d="M143 845q182 -5 433 -5q247 0 433 5q-5 -35 -5 -66q-181 6 -433 6q-249 0 -433 -6q5 39 5 66zM125 627q182 -6 433 -6q247 0 433 6q-5 -36 -5 -66q-181 6 -433 6q-248 0 -433 -6q5 38 5 66z" />
    <glyph glyph-name="greater" unicode="&#x3e;" horiz-adv-x="1032" 
d="M73 262v70l811 352l-811 353v70l887 -390v-65z" />
    <glyph glyph-name="question" unicode="?" horiz-adv-x="911" 
d="M337 209l5 130q3 67 7.5 116t10.5 71.5t16.5 42t45 64t92.5 110.5l106 123q49 58 73.5 102t32 74t7.5 59q0 69 -41 125t-119.5 80.5t-174.5 24.5q-66 0 -135 -9.5t-198 -39.5q10 44 14 74q85 15 171.5 22.5t146.5 7.5q119 0 215.5 -30.5t144 -100.5t47.5 -149
q0 -34 -8.5 -72.5t-37 -92t-80 -116.5t-112.5 -126q-63 -66 -95 -108q-17 -21 -27.5 -43t-17.5 -50.5t-11 -92.5l-12 -196q-16 1 -33 1q-18 0 -33 -1zM309 0q2 41 2.5 65t2.5 44q35 -1 56 -1t56 1q-3 -30 -4 -57.5t-2 -51.5q-36 1 -56 1q-21 0 -55 -1z" />
    <glyph glyph-name="at" unicode="@" horiz-adv-x="1618" 
d="M1147 997q-18 -98 -28 -171l-40 -299q-7 -39 -7 -64q0 -42 21 -61t51 -19q25 0 51 8.5t64.5 36t75 76t62 105.5t39 120.5t13.5 128.5q0 103 -34.5 194t-111 154t-179.5 90.5t-215 27.5q-154 0 -288 -49.5t-233 -157.5t-152 -253t-53 -300q0 -117 36 -219.5t112.5 -172.5
t184 -100.5t227.5 -30.5q66 0 131.5 8.5t126.5 32t131 72.5q13 -24 31 -48q-88 -64 -194 -95t-236 -31q-138 0 -262.5 38.5t-207 116t-120 184.5t-37.5 236q0 177 67 345t177 276.5t258 159t310 50.5q124 0 238.5 -32.5t198.5 -103.5t127 -175t43 -218q0 -98 -30 -191.5
t-88 -173t-131.5 -124.5t-144.5 -45q-55 0 -94 33t-39 83q0 5 1 15q-44 -63 -113.5 -97t-143.5 -34q-72 0 -133.5 33.5t-90 92.5t-28.5 132q0 113 55.5 220t155.5 165.5t248 58.5q29 0 56.5 -2.5t61.5 -9.5zM1062 942q-65 17 -122 17q-107 0 -191 -44t-132 -136t-48 -192
q0 -54 20.5 -101.5t63 -72t97.5 -24.5q58 0 110.5 25.5t93.5 79.5t59.5 120t48.5 328z" />
    <glyph glyph-name="A" unicode="A" horiz-adv-x="1318" 
d="M-33 0l335 657l295 582l61 126q25 -1 54 -1q30 0 54 1l194 -550l295 -815q-26 1 -45 1q-20 0 -45 -1q-28 96 -105 317.5t-121 334.5h-565l-315 -652q-25 1 -46 1t-46 -1zM405 717h512l-213 587z" />
    <glyph glyph-name="B" unicode="B" horiz-adv-x="1136" 
d="M149 0l21 329l29 858q1 49 1 96l-1 82l207 -1l217 1q103 0 155.5 -9t96 -32t77.5 -62t51.5 -93t17.5 -113q0 -49 -11.5 -94.5t-36.5 -86.5t-58.5 -72.5t-65 -49.5t-82.5 -39q51 -16 81.5 -29t61.5 -33t55.5 -47t41.5 -60.5t27 -76t10 -88.5q0 -93 -37.5 -169.5
t-112 -128.5t-159 -67t-186.5 -15l-242 1zM263 739h197q155 0 207 8q67 11 128 42q41 22 76 63t55 96.5t20 115.5q0 58 -19.5 102.5t-57 76.5t-87 46t-154.5 14h-345zM238 63h290q137 0 199 16t118 52.5t89.5 107t33.5 148.5q0 75 -31 133.5t-86 96t-118 48.5t-149 11h-325z
" />
    <glyph glyph-name="C" unicode="C" horiz-adv-x="1250" 
d="M1155 106q-8 -35 -13 -82q-102 -25 -191.5 -35t-160.5 -10q-146 0 -277 47t-225 139.5t-138 219.5t-44 267q0 156 51.5 302t150.5 242.5t237.5 143t295.5 46.5q53 0 114.5 -5t101 -11t105.5 -20q2 -41 9 -86q-110 36 -189.5 48t-153.5 12q-129 0 -248 -40t-210 -128.5
t-139.5 -219t-48.5 -269.5q0 -134 40 -255.5t122 -203.5t195 -124.5t247 -42.5q165 0 369 65z" />
    <glyph glyph-name="D" unicode="D" horiz-adv-x="1478" 
d="M149 0l29 475l27 779q1 43 1 111l221 -1l274 1q193 0 309.5 -30t207.5 -123.5t129 -212t38 -255.5q0 -163 -58.5 -314.5t-173 -254.5t-259 -139t-315.5 -36l-212 1zM235 63q177 -3 279 -3q101 0 207.5 10t190.5 36t164.5 95t132 154t76.5 188.5t25 209.5q0 102 -24 196
q-17 68 -52 127q-39 67 -90.5 113.5t-107.5 70t-140 33.5q-76 10 -178 11h-238l-193 -1z" />
    <glyph glyph-name="E" unicode="E" horiz-adv-x="1073" 
d="M149 0q19 271 34.5 699.5t15.5 665.5q222 -1 417 -1l365 1q-4 -40 -4 -71l-80 6q-31 3 -108 3.5t-151 0.5q-237 0 -360 -1l-20 -573q151 -3 277 -3q150 0 370 3q-4 -30 -5 -66l-377 3q-66 0 -268 -3l-21 -601l287 -1q169 0 234.5 1.5t178.5 7.5q-5 -40 -5 -71
q-240 1 -351 1z" />
    <glyph glyph-name="F" unicode="F" horiz-adv-x="1019" 
d="M149 0l18 348l21 670l4 198q1 73 1 149q209 -1 399 -1l348 1q-4 -40 -4 -71q-86 7 -193.5 8t-195.5 1h-276l-18 -575l213 -3q272 0 404 3q-4 -29 -5 -69l-178 2q-105 2 -166 2q-129 0 -272 -4q-12 -429 -12 -659q-25 1 -44 1t-44 -1z" />
    <glyph glyph-name="G" unicode="G" horiz-adv-x="1495" 
d="M910 752q183 -1 269 -1l175 1l-17 -316l-11 -386q-157 -38 -282.5 -54.5t-213.5 -16.5q-153 0 -292.5 43t-238.5 129.5t-146 215.5t-47 273q0 165 61.5 313.5t169.5 246.5t249 142t305 44q92 0 187.5 -11t224.5 -40q2 -51 8 -92q-143 47 -244 64t-189 17
q-147 0 -280.5 -46t-226 -138t-141 -227t-48.5 -278q0 -135 42.5 -251t127.5 -190t207 -113.5t268 -39.5q50 0 109 5.5t118 15t96.5 19t98.5 28.5l24 581h-119q-48 0 -96 -1l-151 -6q3 31 3 58v11z" />
    <glyph glyph-name="H" unicode="H" horiz-adv-x="1435" 
d="M149 0q24 431 36 805t12 560q26 -1 44 -1t43 1l-27 -639h930l19 502q2 42 2 137q26 -1 44 -1t43 1q-38 -620 -52 -1365q-25 1 -44 1q-20 0 -45 -1q25 348 31 665h-930l-16 -491l-2 -174q-26 1 -44 1q-19 0 -44 -1z" />
    <glyph glyph-name="I" unicode="I" horiz-adv-x="426" 
d="M149 0l22 401l20 601l4 208q1 83 1 155q26 -1 45 -1q20 0 45 1l-18 -362l-24 -745l-5 -258q-25 1 -45 1t-45 -1z" />
    <glyph glyph-name="J" unicode="J" horiz-adv-x="770" 
d="M-35 6q-3 40 -9 78q102 -27 152 -35t98 -8q60 0 113 14q45 12 78 33q28 17 46 39q24 28 42 69q18 42 24 91q8 61 17 307l12 384l8 387q26 -1 45 -1q20 0 45 1q-14 -208 -23 -403l-18 -428q-10 -223 -20 -284q-11 -61 -27 -95q-17 -36 -45 -66q-30 -32 -69 -55
q-45 -27 -93 -39q-61 -15 -136 -15q-39 0 -99.5 5t-140.5 21z" />
    <glyph glyph-name="K" unicode="K" horiz-adv-x="1032" 
d="M153 0q20 311 33 718.5t13 583.5l-1 63q26 -1 45 -1t44 1l-21 -437l-22 -765q-2 -74 -2 -163q-25 1 -44 1q-20 0 -45 -1zM270 725l309 325q178 192 283 315q25 -1 53 -1t52 1l-602 -635l656 -730q-35 1 -58 1q-22 0 -57 -1l-60 75l-44 52l-92 106z" />
    <glyph glyph-name="L" unicode="L" horiz-adv-x="923" 
d="M147 0l21 317l26 717l6 331q25 -1 44 -1q20 0 45 1l-36 -780l-19 -522l205 -1q220 0 303 2t162 7q-4 -40 -4 -71q-212 1 -357 1z" />
    <glyph glyph-name="M" unicode="M" horiz-adv-x="1687" 
d="M121 0l21 185l58 734l31 446q35 -1 64 -1q30 0 65 1l44 -135l79 -224l263 -735l72 -194l528 1168l49 120q34 -1 65 -1t65 1l-10 -579q-2 -196 -2 -291q0 -313 6 -495q-26 1 -47 1q-22 0 -47 -1l17 880q3 159 3 281v132l-170 -373l-406 -920q-24 1 -53 1t-53 -1l-436 1206
l-31 80l-11 -117q-4 -49 -14 -198l-53 -736q-3 -47 -5 -94.5t-3 -140.5q-26 1 -45 1t-44 -1z" />
    <glyph glyph-name="N" unicode="N" horiz-adv-x="1486" 
d="M149 0l23 394l28 810l3 161q24 -1 60 -1q37 0 61 1l83 -131q33 -50 138 -199l513 -740l159 -224l43 1139l3 155q26 -1 41 -1q16 0 42 1l-19 -314l-32 -854l-4 -197q-35 1 -61 1t-60 -1l-183 272l-634 912l-74 101q-3 -51 -5 -105l-36 -936l-5 -244q-26 1 -42 1t-42 -1z
" />
    <glyph glyph-name="O" unicode="O" horiz-adv-x="1593" 
d="M831 1386q143 0 270.5 -43t222.5 -140t135.5 -222.5t40.5 -266.5q0 -155 -46 -298t-139 -240t-232.5 -147t-292.5 -50q-147 0 -282 46.5t-226 137t-133.5 218t-42.5 267.5q0 157 52 304.5t150.5 244.5t235.5 143t287 46zM828 1324q-138 0 -260 -42.5t-212 -138t-132 -225
t-42 -270.5q0 -133 44 -255t129 -202t199.5 -115t241.5 -35q134 0 253.5 39t207 130t128 218.5t40.5 269.5q0 135 -37.5 257t-120.5 207.5t-197 123.5t-242 38z" />
    <glyph glyph-name="P" unicode="P" horiz-adv-x="1028" 
d="M149 0q14 170 24 411l19 498q9 257 9 456l199 -1l223 1q97 0 157.5 -11.5t109.5 -54t74.5 -104.5t25.5 -131q0 -123 -63.5 -218.5t-171 -142.5t-243.5 -47q-77 0 -170 18q-8 29 -20 62q92 -18 176 -18q86 0 164.5 19.5t134 65t86.5 114t31 144.5q0 52 -18.5 100t-51 78.5
t-82 46t-165.5 15.5h-172l-83 1l-59 1q-13 -238 -27 -680t-14 -518l1 -105q-26 1 -47 1q-22 0 -47 -1z" />
    <glyph glyph-name="Q" unicode="Q" horiz-adv-x="1593" 
d="M1479 121q-9 -41 -14 -88q-177 -23 -278.5 -33t-196.5 -15.5t-157 -5.5q-159 0 -300.5 41t-241 136t-142.5 219.5t-43 268.5q0 158 50.5 303.5t149 243.5t235.5 146.5t288 48.5t286 -50.5t223 -151.5t125 -223t37 -261q0 -100 -19.5 -192.5t-55 -167.5t-90.5 -138
q-44 -51 -101 -92q-37 -27 -97 -60q75 5 125 13t98 21.5t119 36.5zM828 1324q-130 0 -246 -39t-207 -126.5t-142 -221t-51 -279.5q0 -129 34 -240t118 -202t203 -133t252 -42q137 0 259.5 43.5t209.5 134t127.5 217t40.5 268.5q0 128 -32.5 239t-108.5 201.5t-198 135
t-259 44.5z" />
    <glyph glyph-name="R" unicode="R" horiz-adv-x="1038" 
d="M149 0l16 242l29 753l4 214l1 156l199 -1l228 1q142 0 207 -37.5t102.5 -107t37.5 -159.5q0 -112 -56.5 -205.5t-154.5 -142.5t-225 -49q-16 0 -48 2l479 -666q-25 1 -52 1q-28 0 -52 -1l-131 198l-381 539q89 -16 154 -16q79 0 153 21.5t127 64.5t82 107.5t29 140.5
q0 51 -14 95t-45 77.5t-63.5 47.5t-83.5 20.5t-108 6.5l-164 -1q-54 0 -138 2q-33 -791 -38 -1303q-25 1 -47 1t-47 -1z" />
    <glyph glyph-name="S" unicode="S" horiz-adv-x="905" 
d="M76 42q0 39 -6 90q189 -91 345 -91q89 0 161 29t111.5 86.5t39.5 131.5q0 37 -10.5 70t-34.5 68t-83.5 89.5t-197.5 169.5l-79 66q-41 36 -79 75t-63 72.5t-37.5 60t-19.5 58.5t-7 66q0 81 44 151t131 111t221 41q93 0 237 -27q1 -38 9 -84q-92 29 -153 39t-116 10
q-99 0 -163 -32.5t-99 -87t-35 -114.5q0 -32 9 -62.5t29.5 -62t54.5 -69t89 -85.5l145 -123l126 -107q35 -31 67 -67t52 -71.5t29.5 -73.5t9.5 -80q0 -94 -47.5 -165t-140 -107.5t-207.5 -36.5q-74 0 -144 11.5t-188 50.5z" />
    <glyph glyph-name="T" unicode="T" horiz-adv-x="965" 
d="M417 0l15 249l39 1054q-247 0 -430 -9q5 41 5 71q241 -1 497 -1l285 1h151q-5 -40 -5 -71q-121 9 -368 9h-58l-40 -1101q-1 -23 -1 -46v-156q-25 1 -45 1q-19 0 -45 -1z" />
    <glyph glyph-name="U" unicode="U" horiz-adv-x="1441" 
d="M194 1365q25 -1 45 -1q21 0 46 1l-46 -820l-2 -74v-17q0 -120 31 -196.5t99.5 -127t150 -70t177.5 -19.5q92 0 177 19q64 14 118 43q43 23 78 58t59.5 79.5t35.5 93.5q20 96 26 235l20 411q10 232 10 385q26 -1 44 -1t44 1l-26 -455l-17 -401q-8 -132 -30 -219
q-14 -52 -41 -99q-26 -43 -62 -76q-41 -38 -99 -67q-63 -32 -136 -48q-96 -20 -198 -20q-112 0 -203 22q-80 19 -147 60t-109 94q-35 43 -56 112t-21 167q0 88 6 207l23 534q3 93 3 189z" />
    <glyph glyph-name="V" unicode="V" horiz-adv-x="1301" 
d="M548 0l-35 113q-10 34 -21 67l-57 162l-370 1023q26 -1 45 -1q20 0 45 1l58 -185l397 -1119l543 1069l52 108q23 47 59 127q25 -1 47 -1t47 1q-90 -162 -235 -447l-262 -511q-117 -227 -200 -407q-35 1 -56 1q-22 0 -57 -1z" />
    <glyph glyph-name="W" unicode="W" horiz-adv-x="2017" 
d="M548 0l-333 983l-85 247q-16 46 -51 135q25 -1 49 -1q25 0 50 1l52 -179l371 -1108l50 94l354 708l-93 276l-74 209q26 -1 41 -1q17 0 42 1q57 -202 127 -400l174 400q25 -1 47 -1t46 1l-126 -257l-108 -231l15 -51l226 -663l34 -91l61 121l68 145l427 911l51 116
q25 -1 45 -1t46 1q-56 -107 -222 -455l-257 -537l-172 -373q-25 1 -52 1t-52 -1l-111 338l-152 449l-26 -50q-11 -19 -48 -96l-319 -641q-25 1 -48 1t-47 -1z" />
    <glyph glyph-name="X" unicode="X" horiz-adv-x="1151" 
d="M-23 0q121 143 556 702l-455 663q25 -1 52 -1t51 1l116 -184l285 -420l387 494l30 41q15 21 47 69q25 -1 51 -1t50 1l-455 -571l-69 -90l190 -284l285 -420q-25 1 -50 1q-26 0 -51 -1l-147 232l-279 410l-202 -256l-222 -292l-68 -94q-25 1 -51 1q-27 0 -51 -1z" />
    <glyph glyph-name="Y" unicode="Y" horiz-adv-x="987" 
d="M408 0l30 433l10 186l-134 238l-296 508q26 -1 45 -1q20 0 45 1l43 -81q13 -25 83 -145l258 -451l239 358l147 229l55 90q26 -1 46 -1t46 1l-504 -750q-1 -49 -4 -93l-13 -257q-3 -57 -5 -126l-2 -139q-26 1 -45 1t-44 -1z" />
    <glyph glyph-name="Z" unicode="Z" horiz-adv-x="1095" 
d="M54 0q4 50 4 92l898 1211l-63 2l-329 -1q-146 0 -233 -2.5t-192 -8.5q3 30 3 61v11q171 -1 467 -1l275 1h146q-4 -44 -4 -91l-823 -1112l-72 -101q193 -1 449 -1q143 0 217.5 1.5t173.5 8.5q-3 -30 -3 -59v-11q-177 1 -431 1q-350 0 -483 -1z" />
    <glyph glyph-name="bracketleft" unicode="[" horiz-adv-x="609" 
d="M266 1365q68 -1 143 -1q76 0 144 1q-4 -27 -5 -54q-45 1 -101 1q-55 0 -104 -1l-34 -852l-26 -848q50 -1 104 -1q53 0 103 1q-3 -27 -3 -55q-62 2 -142 2t-142 -2l36 911z" />
    <glyph glyph-name="backslash" unicode="\" horiz-adv-x="824" 
d="M940 -444q-25 2 -44 2q-18 0 -44 -2l-98 233l-698 1576q26 -1 43 -1q18 0 44 1l65 -158l502 -1139z" />
    <glyph glyph-name="bracketright" unicode="]" horiz-adv-x="609" 
d="M317 -444q-68 2 -143 2t-143 -2q4 27 5 55q45 -1 101 -1q54 0 104 1l49 1322l11 378q-50 1 -104 1t-104 -1q4 27 4 54q62 -2 142 -2q79 0 142 2l-36 -910z" />
    <glyph glyph-name="asciicircum" unicode="^" horiz-adv-x="1032" 
d="M166 791h-81l386 575h91l385 -575h-83l-350 522z" />
    <glyph glyph-name="underscore" unicode="_" horiz-adv-x="1032" 
d="M4 -161h1024v-67h-1024v67z" />
    <glyph glyph-name="grave" unicode="`" horiz-adv-x="1024" 
d="M580 1137q-8 2 -20 2q-13 0 -21 -2l-57 100l-107 179q25 -1 58 -1t58 1z" />
    <glyph glyph-name="a" unicode="a" horiz-adv-x="1021" 
d="M182 904q7 34 11 78q102 28 177 38.5t152 10.5q89 0 165.5 -15.5t125 -52t64 -83.5t15.5 -96q0 -50 -3.5 -126.5t-9.5 -164.5t-11 -219.5t-5 -189.5v-84q-26 1 -42 1q-17 0 -42 -1q14 153 19.5 248t9 204.5t9.5 204.5q-31 -26 -47.5 -38.5t-36 -22.5t-47 -20.5t-50.5 -18
t-111.5 -31.5t-126.5 -36q-86 -28 -133 -53q-51 -27 -85 -60q-30 -29 -44 -61q-16 -38 -16 -81q0 -65 39 -113t98.5 -67.5t143.5 -19.5q42 0 81 4.5t73.5 12t99.5 28.5q-9 -38 -15 -76q-81 -16 -131.5 -20.5t-95.5 -4.5q-84 0 -155 13t-119 51t-71 88t-23 105q0 42 14 81.5
t43 75.5q24 30 64 56q47 32 104 54q66 26 142 48q21 6 165 43q65 17 123 42.5t90 71t32 92.5q0 34 -15 65.5t-53.5 59.5t-95.5 39t-120 11q-73 0 -137 -9.5t-108 -22t-111 -39.5z" />
    <glyph glyph-name="b" unicode="b" horiz-adv-x="1158" 
d="M132 0l8 99l29 824l11 442q26 -1 42 -1q17 0 43 1q-11 -113 -15 -224l-7 -156q110 28 184.5 37t147.5 9q127 0 221.5 -31.5t156 -105t87 -163.5t25.5 -189q0 -111 -30 -215.5t-93.5 -188t-153 -121t-198.5 -37.5q-63 0 -120.5 15t-101 41t-72.5 57.5t-46 63t-35 85.5
l-2 -242q-26 1 -41 1q-14 0 -40 -1zM241 914q-8 -203 -12 -264t-4 -143q0 -107 16 -190t62 -148t119.5 -99.5t162.5 -34.5q90 0 168 34.5t130 108.5t79.5 173.5t27.5 198.5q0 140 -53.5 239.5t-143 142.5t-210.5 43q-74 0 -154 -13t-188 -48z" />
    <glyph glyph-name="c" unicode="c" horiz-adv-x="937" 
d="M822 80q-10 -41 -14 -76q-127 -25 -237 -25q-104 0 -194.5 29t-155.5 93.5t-96.5 162t-31.5 204.5q0 146 49.5 278t158 208.5t293.5 76.5q135 0 257 -37q1 -33 7 -70q-104 32 -163 41.5t-108 9.5q-105 0 -186 -40.5t-134.5 -114.5t-76 -165.5t-22.5 -183.5q0 -99 25 -185
t80 -140t135 -82.5t168 -28.5q49 0 104 9.5t142 35.5z" />
    <glyph glyph-name="d" unicode="d" horiz-adv-x="1156" 
d="M990 0q-26 1 -39 1q-14 0 -40 -1l15 254q-24 -58 -44.5 -92t-52 -66.5t-76.5 -58.5t-104 -42t-122 -16q-97 0 -181.5 35t-143 99.5t-84 149t-25.5 178.5q0 127 47 245t136.5 198.5t203 113.5t239.5 33q103 0 225 -22q5 95 5 182q0 77 -3 174q26 -1 42 -1t41 1
q-11 -187 -17 -392l-14 -484q-8 -278 -8 -366v-123zM941 940q-71 22 -123 28.5t-99 6.5q-112 0 -214 -32t-178 -104t-117.5 -182t-41.5 -217q0 -118 45.5 -215t129 -143.5t186.5 -46.5q61 0 111.5 14.5t91 40.5t77 69.5t64 102.5t40.5 129t18 215z" />
    <glyph glyph-name="e" unicode="e" horiz-adv-x="1032" 
d="M882 97q-8 -37 -12 -75q-83 -24 -149 -33.5t-135 -9.5q-120 0 -212.5 32.5t-158.5 108t-94 169.5t-28 200q0 139 48 260.5t158 201.5t273 80q112 0 203 -41.5t141.5 -135.5t50.5 -223q0 -24 -2 -46l-791 -1q-5 -65 -5 -98q0 -95 28 -184t84.5 -149t135.5 -89t167 -29
q134 0 298 62zM183 639l711 -1q-1 69 -8 106t-26 76t-45.5 67.5t-62 48t-79.5 29.5t-92 10q-53 0 -104 -12t-93 -33t-78.5 -53.5t-60 -70.5t-36 -72.5t-26.5 -94.5z" />
    <glyph glyph-name="f" unicode="f" horiz-adv-x="513" 
d="M143 0l18 354l18 600h-127q4 27 5 56h124q5 145 8 170q6 53 18 83.5t31 52.5t50.5 40.5t73.5 28.5t97 10q32 0 65.5 -4t91.5 -16q2 -30 9 -69q-94 33 -171 33q-43 0 -77.5 -11.5t-55.5 -27.5t-35.5 -41t-21.5 -55t-10 -89q0 -12 -3 -105h298q-4 -26 -5 -56h-295l-23 -954
q-26 1 -42 1q-15 0 -41 -1z" />
    <glyph glyph-name="g" unicode="g" horiz-adv-x="1185" 
d="M179 -365q132 -38 218 -51t158 -13q85 0 158 22q67 19 114 53q42 31 65 69q27 45 40.5 112t16.5 144q7 124 10 280q-20 -48 -34.5 -75.5t-40.5 -58t-60.5 -55t-79 -44t-98.5 -30.5t-112 -11q-93 0 -172.5 24t-142 81t-94.5 146.5t-32 188.5q0 135 48 259t136.5 204.5
t204.5 115.5t251 35q137 0 332 -35l-10 -115q-3 -33 -6 -86l-23 -458l-11 -419q-4 -75 -20 -133q-17 -62 -52 -111t-88 -83t-134 -54q-88 -22 -198 -22q-81 0 -158 8.5t-179 32.5q-2 41 -7 79zM985 949q-95 18 -152 22t-101 4q-115 0 -213 -26t-179.5 -98t-126.5 -185
t-45 -234q0 -116 41.5 -210t129 -141.5t193.5 -47.5q72 0 134 16q48 12 90.5 38.5t81.5 70.5t68.5 103.5t42.5 121.5q17 87 24 223z" />
    <glyph glyph-name="h" unicode="h" horiz-adv-x="1180" 
d="M134 0l30 652q3 95 12 490l6 223q23 -1 38 -1q17 0 39 1l-27 -584q23 47 39.5 74t44.5 55.5t59.5 49t71 36t93 25.5t112.5 10q87 0 165 -18.5t133 -62t76 -104.5t21 -122q0 -20 -1 -56q-2 -55 -8 -149l-16 -407q-2 -39 -4 -112q-26 1 -40 1q-15 0 -41 -1q12 129 18 260
l14 244q7 113 7 195q0 95 -35.5 155t-119 90.5t-176.5 30.5q-62 0 -122 -14q-56 -13 -98 -35q-35 -18 -64 -45q-31 -29 -56 -68q-27 -45 -45 -100q-17 -51 -26 -137q-7 -67 -14 -262l-8 -314q-26 1 -39 1t-39 -1z" />
    <glyph glyph-name="i" unicode="i" horiz-adv-x="382" 
d="M170 1266l3 99q25 -1 51 -1t51 1l-3 -99q-25 2 -51 2t-51 -2zM134 0q11 150 25.5 523t14.5 487q26 -1 40 -1q15 0 41 1q-14 -190 -27.5 -518t-13.5 -492q-26 1 -40 1t-40 -1z" />
    <glyph glyph-name="j" unicode="j" horiz-adv-x="383" 
d="M166 1266l2 99q25 -1 51 -1q27 0 51 1l-3 -99q-25 2 -50 2q-27 0 -51 -2zM248 1010l-21 -439l-17 -445q-11 -267 -20 -332q-10 -75 -29 -120q-13 -32 -37 -60q-25 -28 -60 -50q-37 -24 -78 -34q-52 -14 -126 -14q-98 0 -224 30q-1 31 -7 76q132 -50 245 -50q46 0 84 11
t65.5 29.5t44 40t30.5 60.5q19 52 27 129t20 337q4 86 14 382q11 330 11 363v86q26 -1 39 -1q14 0 39 1z" />
    <glyph glyph-name="k" unicode="k" horiz-adv-x="853" 
d="M130 0q13 205 22 455l16 509q8 259 8 401q26 -1 41 -1t41 1l-12 -200l-33 -947l-4 -218q-27 1 -40 1t-39 -1zM232 561l272 261l85 84l40 42l57 62q25 -1 52 -1t51 1l-353 -335q-48 -44 -118 -114l362 -391l162 -170q-25 1 -50 1q-27 0 -51 -1l-211 237z" />
    <glyph glyph-name="l" unicode="l" horiz-adv-x="383" 
d="M127 0q46 834 54 1365q26 -1 41 -1t41 1l-25 -487l-29 -878q-26 1 -41 1t-41 -1z" />
    <glyph glyph-name="m" unicode="m" horiz-adv-x="1691" 
d="M120 0l11 136q3 41 5 82l26 667q1 73 1 125q20 -1 39 -1t38 1l-10 -210q32 61 59 96t72.5 67t104 50t121.5 18q54 0 103 -14t83.5 -35t57.5 -47t35.5 -54t24.5 -77q20 39 38 67.5t48.5 58.5t72.5 52.5t93.5 35.5t105.5 13q83 0 157 -28.5t114.5 -91.5t40.5 -151
q0 -49 -7 -148.5t-15.5 -283t-9.5 -328.5q-26 1 -40 1t-40 -1q9 123 18 294l15 275q6 103 6 170q0 35 -3 60.5t-13.5 50t-30.5 46.5t-48.5 38.5t-68.5 26t-85 9.5q-65 0 -120 -20t-99 -56.5t-72.5 -87t-46.5 -138.5q-16 -75 -22 -268l-11 -400q-26 1 -40 1t-40 -1
q10 137 15 268l12 252q6 120 6 199q0 74 -14 113.5t-45.5 70.5t-79 48.5t-104.5 17.5q-62 0 -118.5 -20.5t-100.5 -58t-74.5 -92t-49.5 -144.5q-16 -78 -25 -278q-10 -221 -10 -376q-26 1 -40 1t-40 -1z" />
    <glyph glyph-name="n" unicode="n" horiz-adv-x="1167" 
d="M120 0l34 611l9 287q2 77 2 112q26 -1 39 -1q12 0 38 1l-13 -228q22 47 36.5 71.5t39.5 52.5t59.5 52.5t83 41t99.5 24t101 7.5q84 0 163 -19t131 -65.5t71.5 -107t19.5 -129.5q0 -31 -3 -92l-21 -455l-4 -163q-20 1 -39 1t-38 -1q10 125 16 239l14 256q8 142 8 205
q0 66 -19 118t-65.5 86.5t-110.5 50t-132 15.5q-95 0 -168 -26q-69 -25 -121 -73.5t-85 -122.5q-25 -54 -38 -151q-12 -84 -19.5 -274.5t-7.5 -322.5q-26 1 -40 1t-40 -1z" />
    <glyph glyph-name="o" unicode="o" horiz-adv-x="1152" 
d="M589 1031q93 0 180 -26t153.5 -88.5t101.5 -163.5t35 -214q0 -122 -37 -234t-105 -187.5t-159.5 -106.5t-194.5 -31q-72 0 -141.5 16.5t-130 55.5t-106 101t-69 147t-23.5 177q0 161 60 294.5t179.5 196.5t256.5 63zM587 975q-119 0 -221 -58t-150 -177t-48 -261
q0 -100 27.5 -188t88.5 -148.5t131.5 -84t148.5 -23.5q89 0 167 29t137.5 97t87.5 167t28 210q0 103 -27.5 193.5t-85.5 145t-132 76.5t-152 22z" />
    <glyph glyph-name="p" unicode="p" horiz-adv-x="1145" 
d="M106 -444l12 202l32 906l7 304q130 35 227.5 49t189.5 14q146 0 252.5 -49.5t165.5 -169.5t59 -273q0 -162 -62.5 -297t-169 -198.5t-237.5 -63.5q-59 0 -116 13t-104.5 39.5t-81 65t-77.5 120.5l-16 -530v-34q0 -34 1 -98q-26 1 -41 1t-41 -1zM234 906
q-8 -85 -14.5 -243t-6.5 -209q0 -87 18 -161.5t72 -136t127.5 -92.5t152.5 -31q113 0 203 61t139.5 180.5t49.5 260.5t-51 244t-138.5 149.5t-198.5 46.5q-167 0 -353 -69z" />
    <glyph glyph-name="q" unicode="q" horiz-adv-x="1136" 
d="M888 -444l12 234l5 101l1 40l10 316q-37 -75 -68 -115t-82.5 -75.5t-116.5 -56t-135 -20.5q-89 0 -171.5 34t-139 95t-83.5 146.5t-27 177.5q0 134 49.5 257t142.5 203.5t205 109t246 28.5q29 0 58 -1.5t56.5 -4.5t76.5 -11l89 -14l-10 -129q-3 -44 -5 -88l-20 -632
l-12 -595q-26 1 -40 1q-15 0 -41 -1zM932 945q-82 20 -129.5 25t-86.5 5q-165 0 -292 -65.5t-191.5 -195.5t-64.5 -287q0 -107 38 -195.5t121.5 -142.5t188.5 -54q57 0 109 15.5t96.5 44.5t82 74t66.5 106.5t40 126.5t16.5 249t5.5 294z" />
    <glyph glyph-name="r" unicode="r" horiz-adv-x="644" 
d="M120 0q12 211 23 496t11 424l-1 90q20 -1 37 -1q18 0 37 1l-9 -189q34 68 63 103t67.5 58.5t90 36t107.5 12.5q41 0 83 -10q0 -34 4 -68q-67 17 -116 17q-48 0 -86.5 -13t-72 -38t-65.5 -68.5t-48 -92.5q-20 -57 -27 -139q-11 -128 -14 -292q-4 -221 -4 -327q-26 1 -40 1
t-40 -1z" />
    <glyph glyph-name="s" unicode="s" horiz-adv-x="736" 
d="M60 19q-2 48 -8 85q79 -35 149 -49t128 -14q77 0 131.5 22t82.5 65t28 90q0 21 -4.5 40.5t-14.5 39t-22.5 36t-34.5 37.5l-53 47l-94 79q-64 53 -105.5 91.5t-69 78t-39 72.5t-11.5 67q0 58 36.5 112.5t105 83.5t173.5 29q88 0 198 -23q1 -44 6 -85q-64 27 -114.5 36.5
t-102.5 9.5q-65 0 -120 -19.5t-82.5 -57t-27.5 -81.5q0 -24 6 -45t19 -42.5t33.5 -44t53 -52t93.5 -80.5l92 -78q30 -27 51.5 -49t41 -48.5t31.5 -51.5t18 -50.5t6 -51.5q0 -63 -37 -119t-107.5 -88t-169.5 -32q-37 0 -92.5 6t-89 12.5t-84.5 21.5z" />
    <glyph glyph-name="t" unicode="t" horiz-adv-x="564" 
d="M533 63q-8 -30 -12 -63q-81 -20 -149 -20q-57 0 -101.5 12.5t-72.5 45t-37 72t-9 84.5q0 8 0.5 25t3.5 75l33 662h-123q4 27 5 54h122q5 63 8 188q38 5 66 13q-7 -162 -7 -201h300q-4 -27 -5 -54h-298l-33 -686l-1 -41q0 -84 19.5 -122t55 -55t73.5 -17q27 0 57.5 4.5
t104.5 23.5z" />
    <glyph glyph-name="u" unicode="u" horiz-adv-x="1165" 
d="M1002 0q-20 1 -37 1t-37 -1l8 217q-23 -51 -37.5 -73.5t-37.5 -47.5t-57.5 -47.5t-81.5 -38.5t-96.5 -23t-99.5 -7q-86 0 -160.5 19t-132 66t-78.5 109.5t-21 141.5q0 61 13.5 301.5t13.5 392.5q26 -1 39 -1t39 1q-8 -86 -23.5 -357t-15.5 -339q0 -76 20 -129t69.5 -87.5
t112 -48.5t128.5 -14q69 0 132.5 17.5t105.5 43.5t74 64q37 44 63 102q23 51 34 126.5t19 273.5q7 190 8 348q27 -1 40 -1t39 1l-37 -700l-4 -151q-2 -93 -2 -159z" />
    <glyph glyph-name="v" unicode="v" horiz-adv-x="921" 
d="M391 0q-56 163 -131 363l-242 647q26 -1 45 -1q20 0 45 1l26 -85q8 -24 17 -48l293 -820l377 868l33 85q26 -1 45 -1q20 0 45 1l-403 -882l-54 -128q-25 1 -48 1t-48 -1z" />
    <glyph glyph-name="w" unicode="w" horiz-adv-x="1644" 
d="M384 0l-46 139l-320 871q26 -1 41 -1t41 1l40 -123l156 -440l109 -293l41 -102l96 244l266 714q25 -1 46 -1q22 0 47 1l266 -958q252 547 419 958q27 -1 41 -1t40 1l-389 -859l-64 -151q-35 1 -55 1q-21 0 -56 -1l-47 187l-177 646l-33 105l-33 -80l-290 -782
q-6 -15 -25 -76q-35 1 -57 1q-23 0 -57 -1z" />
    <glyph glyph-name="x" unicode="x" horiz-adv-x="851" 
d="M-30 0l203 273l202 277l-291 460q26 -1 43 -1q19 0 44 1q91 -161 250 -399q191 253 286 399q26 -1 45 -1q20 0 45 1l-342 -458l358 -552q-26 1 -47 1q-22 0 -47 -1q-36 66 -59 104l-115 185l-133 204q-179 -237 -350 -493q-26 1 -46 1q-21 0 -46 -1z" />
    <glyph glyph-name="y" unicode="y" horiz-adv-x="912" 
d="M-79 -465q0 33 -6 78q31 -14 51 -20.5t48.5 -11t52.5 -4.5q57 0 107 29t101 118t119 245l-220 613l-158 428q29 -1 48 -1t47 1l18 -71q11 -41 25 -83q18 -58 53 -155l227 -649l316 704q43 97 60 140t41 114q29 -1 45 -1q17 0 46 1l-183 -397l-195 -421l-187 -412
q-44 -95 -76 -140q-26 -35 -54 -60q-21 -18 -47 -31q-31 -16 -67 -24q-39 -10 -80 -10q-63 0 -132 20z" />
    <glyph glyph-name="z" unicode="z" horiz-adv-x="838" 
d="M38 0q3 45 3 87l123 156l476 624l61 83q-115 3 -212 3q-195 0 -377 -10q3 36 3 67q168 -1 338 -1l319 1q-3 -30 -3 -76v-11l-659 -862q93 -4 203 -4q260 0 417 12q-4 -40 -4 -69q-162 1 -322 1h-293z" />
    <glyph glyph-name="braceleft" unicode="{" horiz-adv-x="784" 
d="M340 459q23 -12 36.5 -21.5t26.5 -27t22.5 -38.5t14 -51.5t4.5 -72.5q0 -84 -9.5 -220t-9.5 -192q0 -62 4.5 -91t14 -52t25 -38t38 -25t47.5 -14t57 -5q-4 -30 -4 -55q-63 0 -103 11q-54 14 -84 41t-47 73.5t-17 146.5q0 56 10 219.5t10 217.5q0 35 -6.5 63t-17 44.5
t-28 30.5t-31.5 20.5t-34 11.5q4 23 5 49q31 10 55 28q28 18 42 39t22 54q6 28 9 86q1 22 3 142l3 185q2 101 6 132q5 43 17 77q9 26 24 47q14 20 32 36q20 17 44 28q28 14 62 20q31 7 90 7q-4 -27 -5 -54q-53 -3 -84.5 -13.5t-49.5 -24t-30 -32.5q-16 -27 -24.5 -61
t-11.5 -110t-3 -175q0 -27 -1.5 -105t-5.5 -129t-12.5 -82t-21.5 -52t-30.5 -36t-53.5 -32z" />
    <glyph glyph-name="bar" unicode="|" horiz-adv-x="1032" 
d="M482 1365h68v-1706h-68v1706z" />
    <glyph glyph-name="braceright" unicode="}" horiz-adv-x="784" 
d="M415 459q-29 14 -45.5 26.5t-31.5 37.5t-21 63.5t-6 82.5q0 19 1.5 55.5t3.5 79.5l7 124q5 81 6 123t1 69q0 56 -8.5 87.5t-31 54.5t-55.5 34t-86 14q0 26 -5 55q45 0 73 -3t60 -15.5t55.5 -32t38 -45.5t22.5 -63.5t8 -84.5q0 -27 -4 -104l-11 -199q-7 -121 -7 -158
q0 -42 8.5 -77t39 -61.5t68.5 -37.5q-4 -28 -4 -50q-26 -6 -46 -19q-25 -15 -39 -31t-22 -36q-11 -26 -16 -65q-4 -30 -6 -136l-2 -184q-2 -95 -5 -145q-7 -78 -20 -118.5t-37 -69t-56 -45t-78 -23.5q-24 -4 -80 -6q4 27 5 55q52 1 88.5 14t59 37t32.5 51.5t16 100t6 213.5
q0 68 2.5 148.5t8 117t15 62t23.5 45t29.5 32t45.5 27.5z" />
    <glyph glyph-name="asciitilde" unicode="~" horiz-adv-x="1374" 
d="M247 560l-48 31q67 122 130.5 162t130.5 40q45 0 99 -19.5t147 -68.5t132.5 -61.5t76.5 -12.5q61 0 109.5 36.5t101.5 128.5l49 -29q-35 -67 -77.5 -113.5t-92 -67t-95.5 -20.5q-34 0 -73 11.5t-62 21t-148 74.5q-64 33 -101.5 44.5t-68.5 11.5q-59 0 -109.5 -40
t-100.5 -129z" />
    <glyph glyph-name="nbspace" unicode="&#xa0;" horiz-adv-x="512" 
 />
    <glyph glyph-name="exclamdown" unicode="&#xa1;" horiz-adv-x="489" 
d="M200 1010q35 -1 55 -1q21 0 56 1q-3 -41 -3.5 -65t-2.5 -44q-35 1 -55 1q-21 0 -56 -1q2 30 3 57.5t3 51.5zM220 802q17 -2 32 -2q17 0 32 2l-28 -1036q-1 -76 -1 -121q-26 1 -46 1t-45 -1l10 144z" />
    <glyph glyph-name="cent" unicode="&#xa2;" 
d="M865 255q-11 -41 -15 -73q-90 -23 -129 -28.5t-108 -7.5q-4 -69 -4 -146q-21 1 -34 1q-14 0 -34 -1q9 112 10 152q-68 15 -109 30.5t-79.5 42.5t-71.5 66.5t-59.5 95t-41.5 124t-15 145.5q0 85 17.5 162.5t47 143.5t72 118t86.5 82t85.5 44.5t111.5 24.5q3 46 3 134
q20 -1 37 -1t37 1q-6 -57 -9 -129q68 -2 115 -11.5t114 -30.5q0 -46 4 -78q-125 57 -242 57q-95 0 -172 -40t-132 -115.5t-78.5 -171.5t-23.5 -190q0 -135 42.5 -229.5t127.5 -157t209 -62.5q43 0 89.5 8t148.5 40z" />
    <glyph glyph-name="sterling" unicode="&#xa3;" 
d="M1053 82q-11 -41 -16 -80q-60 -22 -141 -22q-50 0 -106.5 12.5t-143.5 47t-116.5 44.5t-62 16.5t-66.5 6.5q-50 0 -91 -13t-70.5 -32t-73.5 -62q4 57 4 106q46 40 71 65.5t50.5 61t45 78.5t29.5 90t10 97q0 76 -29 159l-181 -4q8 31 11 57l152 -4q-12 30 -49 113
t-49.5 117t-19 71.5t-6.5 71.5q0 87 51.5 159t149.5 110t228 38q52 0 102.5 -6.5t133.5 -25.5q4 -37 11 -72q-82 25 -151.5 34.5t-119.5 9.5q-91 0 -170 -31t-122 -92t-43 -124q0 -20 4 -45.5t12 -54.5t29 -79l44 -105q23 -56 35 -89q173 0 430 4q-8 -30 -11 -57
q-196 4 -402 4q25 -78 25 -154q0 -54 -11 -104.5t-30.5 -93.5t-41 -76t-64.5 -85q52 14 79.5 17.5t51.5 3.5q48 0 93.5 -12t111.5 -40.5t103 -41t78.5 -20.5t80.5 -8q31 0 66.5 6.5t94.5 32.5z" />
    <glyph glyph-name="currency" unicode="&#xa4;" 
d="M217 1010l-64 64q-16 17 -77 77q27 21 46 41l132 -143q56 52 141.5 80.5t172.5 28.5q84 0 167 -27.5t136 -82.5l144 145q20 -25 39 -44l-151 -140q40 -56 61.5 -135.5t21.5 -160.5q0 -88 -21.5 -171t-63.5 -152l135 -134q-29 -25 -45 -41l-121 131q-31 -38 -59 -58.5
t-69.5 -39.5t-95 -30t-108.5 -11q-45 0 -90.5 8t-89 24.5t-76 38.5t-64.5 57l-121 -122q-19 25 -39 45l128 119q-16 24 -27 47.5t-22.5 61t-18 81t-6.5 90.5q0 101 29 198t76 155zM559 1104q-107 0 -199.5 -52t-136 -158.5t-43.5 -234.5q0 -90 25 -169t80 -133t118.5 -74.5
t134.5 -20.5q83 0 156 28t124 88t75.5 147.5t24.5 186.5q0 92 -25 173.5t-77 130t-119.5 68.5t-137.5 20z" />
    <glyph glyph-name="yen" unicode="&#xa5;" 
d="M156 571q8 31 11 57q196 -4 333 -4l-111 197q-70 0 -245 -4q8 30 11 57q150 -3 205 -3l-287 494q26 -1 45 -1q20 0 45 1l43 -81q13 -25 83 -145l258 -451l239 358l147 229l55 90q26 -1 46 -1t46 1l-333 -494l133 1l91 2q-8 -31 -11 -57q-176 4 -247 4l-132 -197l192 1
l168 3q-7 -30 -10 -57q-200 4 -356 4l-13 -251q-8 -139 -10 -324q-26 1 -45 1t-44 -1l22 299q2 24 15 276l-178 -1z" />
    <glyph glyph-name="brokenbar" unicode="&#xa6;" horiz-adv-x="1032" 
d="M482 1365h68v-662h-68v662zM482 314h68v-655h-68v655z" />
    <glyph glyph-name="section" unicode="&#xa7;" horiz-adv-x="1040" 
d="M807 1344q1 -39 6 -73q-132 55 -237 55q-85 0 -143 -33.5t-89.5 -93.5t-31.5 -125q0 -37 10 -70t29.5 -61.5t42 -48.5t67.5 -45.5t98 -50.5q115 -54 180 -95t98.5 -79.5t54.5 -89.5t21 -112q0 -45 -12.5 -89.5t-37.5 -86t-56 -72.5t-59 -50.5t-71 -44.5q34 -30 53 -52
t33.5 -52t23 -67t8.5 -76q0 -143 -98.5 -235.5t-253.5 -92.5q-44 0 -92.5 8t-131.5 31q-1 39 -6 82q82 -30 133 -42.5t100 -12.5q80 0 145 34.5t99 102t34 136.5q0 58 -28.5 111t-82.5 88t-116 63q-126 56 -170 81t-83 58.5t-65.5 70.5t-38.5 78.5t-12 89.5q0 47 12 92.5
t36.5 87.5t57 75t60 52.5t74.5 44.5q-38 32 -57 53.5t-35.5 52t-24 64t-7.5 68.5q0 87 45 162.5t123.5 113t180.5 37.5q107 0 214 -42zM627 113q50 27 76 45t53.5 44t49.5 62.5t33 76t11 77.5q0 29 -6 55.5t-17 51t-29.5 48.5t-46 48t-60.5 43q-23 14 -120 61l-155 78
q-45 -24 -71.5 -42t-58.5 -50t-55 -70t-33 -73t-10 -73q0 -29 6 -56.5t17.5 -51t30.5 -47.5t48.5 -49t66.5 -46q29 -17 120 -59q74 -34 150 -73z" />
    <glyph glyph-name="dieresis" unicode="&#xa8;" horiz-adv-x="1024" 
d="M613 1227l3 99q25 -1 51 -1t51 1l-3 -99q-25 1 -51 1q-27 0 -51 -1zM361 1227l3 99q25 -1 51 -1t51 1l-3 -99q-25 1 -51 1q-27 0 -51 -1z" />
    <glyph glyph-name="copyright" unicode="&#xa9;" horiz-adv-x="1593" 
d="M831 1386q143 0 270.5 -43t222.5 -140t135.5 -222.5t40.5 -266.5q0 -155 -46 -298t-139 -240t-232.5 -147t-292.5 -50q-147 0 -282 46.5t-226 137t-133.5 218t-42.5 267.5q0 157 52 304.5t150.5 244.5t235.5 143t287 46zM828 1334q-141 0 -266 -43.5t-216 -140
t-134.5 -228t-43.5 -274.5q0 -135 45 -259t132.5 -205t204 -117t246.5 -36q137 0 259.5 40t211 132t130 221.5t41.5 273.5q0 137 -38 261t-123 210.5t-201.5 125.5t-247.5 39zM1060 383q-7 -28 -12 -68q-109 -26 -210 -26q-81 0 -157 25t-132.5 78t-83 126t-26.5 154
q0 116 50 216t149.5 150.5t230.5 50.5q95 0 191 -22q0 -30 7 -69q-71 23 -117.5 30t-89.5 7q-105 0 -187 -42t-127 -126.5t-45 -188.5q0 -93 36.5 -170t116.5 -121.5t183 -44.5q96 0 223 41z" />
    <glyph glyph-name="ordfeminine" unicode="&#xaa;" horiz-adv-x="659" 
d="M125 1070q8 35 10 69q68 17 115 23.5t95 6.5q81 0 135 -17.5t77 -51.5t23 -85q0 -33 -2 -77.5t-5.5 -94.5t-6.5 -126.5t-3 -110.5v-60l-35 1l-36 -1q7 75 11 129.5t6 129.5l5 115q-19 -14 -30 -20.5t-33.5 -15t-56.5 -17.5l-75 -20q-38 -10 -77 -23.5t-65 -29t-40 -31
t-20.5 -32.5t-6.5 -36q0 -36 22.5 -62.5t57 -36.5t82.5 -10q33 0 68.5 5t100.5 25q-11 -38 -15 -66q-78 -16 -147 -16q-81 0 -128.5 16t-76.5 55.5t-29 87.5q0 32 12.5 60.5t35.5 50.5t60 40t98 37l126 32q86 22 114 51t28 60q0 40 -39.5 66.5t-124.5 26.5q-54 0 -106 -8.5
t-124 -38.5z" />
    <glyph glyph-name="guillemotleft" unicode="&#xab;" horiz-adv-x="775" 
d="M388 883l-114 -244l-52 -116l42 -117q24 -68 45 -122l44 -115q-17 1 -32 1t-31 -1l-29 63q-11 25 -38 79l-103 212q84 136 203 360q17 -2 33 -2q17 0 32 2zM641 883l-115 -244l-51 -116l41 -117l45 -122l44 -115q-16 1 -31 1q-16 0 -31 -1l-171 354q85 136 204 360
q16 -2 32 -2q18 0 33 2z" />
    <glyph glyph-name="logicalnot" unicode="&#xac;" horiz-adv-x="1032" 
d="M891 0v483h-819v63h887v-546h-68z" />
    <glyph glyph-name="sfthyphen" unicode="&#xad;" horiz-adv-x="494" 
d="M-3 490q5 41 5 71q109 -5 240 -5q127 0 241 5q-5 -40 -5 -71q-109 6 -243 6q-124 0 -238 -6z" />
    <glyph glyph-name="registered" unicode="&#xae;" horiz-adv-x="1593" 
d="M831 1386q143 0 270.5 -43t222.5 -140t135.5 -222.5t40.5 -266.5q0 -155 -46 -298t-139 -240t-232.5 -147t-292.5 -50q-147 0 -282 46.5t-226 137t-133.5 218t-42.5 267.5q0 157 52 304.5t150.5 244.5t235.5 143t287 46zM828 1334q-141 0 -266 -43.5t-216 -140
t-134.5 -228t-43.5 -274.5q0 -135 45 -259t132.5 -205t204 -117t246.5 -36q137 0 259.5 40t211 132t130 221.5t41.5 273.5q0 137 -38 261t-123 210.5t-201.5 125.5t-247.5 39zM574 300q10 115 19.5 367.5t9.5 409.5l115 -1l125 1q52 0 92.5 -7t70 -34t43.5 -62t14 -76
q0 -43 -15.5 -82.5t-45.5 -71.5t-68 -50q-25 -12 -53 -16l-84 -9l274 -370q-37 2 -50 2t-34 -1l-32 48q-16 24 -53 75l-224 309q70 -12 110 -12q59 0 109 20t77 61t27 94q0 26 -7 48t-24 40.5t-37 26t-46.5 10.5t-94.5 3l-124 -1q-8 -172 -14.5 -397.5t-6.5 -324.5l-36 1z
" />
    <glyph glyph-name="overscore" unicode="&#xaf;" horiz-adv-x="1032" 
d="M4 1564h1024v-67h-1024v67z" />
    <glyph glyph-name="degree" unicode="&#xb0;" horiz-adv-x="532" 
d="M467 1208q0 -47 -24 -88.5t-65 -65t-89 -23.5q-47 0 -88 23.5t-65 65t-24 88.5q0 48 24 89t65 65t88 24q48 0 89 -24t65 -65t24 -89zM411 1208q0 50 -35.5 85.5t-86.5 35.5q-50 0 -85.5 -35.5t-35.5 -85.5t35.5 -85.5t85.5 -35.5q51 0 86.5 35.5t35.5 85.5z" />
    <glyph glyph-name="plusminus" unicode="&#xb1;" 
d="M122 711q4 23 6 66q93 -3 245 -4l152 -1l5 226q3 110 3 155q19 -2 35 -2q19 0 36 2q-3 -40 -8 -158l-10 -223h96l311 5q-5 -35 -5 -66q-100 3 -254 5l-150 1l-8 -381q-19 1 -36 1q-18 0 -36 -1q3 42 8 143l11 238l-115 -1l-99 -1zM104 199q4 23 6 66q175 -5 432 -5
q249 0 433 5q-4 -31 -5 -66q-182 6 -433 6q-248 0 -433 -6z" />
    <glyph glyph-name="twosuperior" unicode="&#xb2;" horiz-adv-x="707" 
d="M101 546q2 23 2 40v18l194 197q86 91 146 163.5t87 116t35 68t8 47.5q0 60 -53.5 94.5t-141.5 34.5q-90 0 -238 -36q7 31 11 65q113 23 226 23q75 0 133.5 -19.5t92 -60t33.5 -96.5q0 -29 -6.5 -55t-28 -65.5t-69.5 -99.5q-75 -93 -163 -189t-189 -193q19 -1 110 -1
q129 0 189.5 1t128.5 7q-4 -29 -5 -60q-95 1 -245 1z" />
    <glyph glyph-name="threesuperior" unicode="&#xb3;" horiz-adv-x="706" 
d="M86 566q-1 32 -8 71q75 -30 128 -40t101 -10q112 0 182 55.5t70 139.5q0 44 -23.5 81.5t-72 59t-142.5 21.5q-34 0 -86 -4q2 27 2 42v18q34 -6 63 -6q65 0 123 20t89.5 65t31.5 97q0 43 -23 79t-68.5 53t-112.5 17q-89 0 -196 -30q7 33 9 63q113 19 185 19q84 0 147 -22
t93.5 -69t30.5 -106q0 -43 -17.5 -87t-47.5 -72t-85 -46q75 -10 119.5 -62.5t44.5 -130.5q0 -70 -39 -129t-114.5 -89t-172.5 -30q-44 0 -92 6.5t-119 25.5z" />
    <glyph glyph-name="acute" unicode="&#xb4;" horiz-adv-x="1024" 
d="M478 1137q15 50 32 101l57 178q25 -1 58 -1t58 1l-81 -134q-57 -97 -83 -145q-8 2 -21 2q-12 0 -20 -2z" />
    <glyph glyph-name="mu" unicode="&#xb5;" 
d="M168 1010q27 -1 40 -1t39 1q-7 -88 -19.5 -359t-12.5 -337q0 -101 28.5 -158.5t93 -89t146.5 -31.5q78 0 147 28q60 24 101 66q46 48 77 125q24 59 35 147q7 61 13 218q7 193 9 391q26 -1 39 -1t39 1l-37 -700l-4 -151q-2 -93 -2 -159q-20 1 -36 1q-18 0 -37 -1l8 217
q-23 -57 -43.5 -91t-53.5 -63t-72 -46t-85.5 -27t-101.5 -10q-99 0 -172.5 35t-111.5 108l-1 -89l-4 -285l-1 -95l1 -98q-26 1 -41 1t-41 -1q25 391 42.5 803.5t17.5 650.5z" />
    <glyph glyph-name="paragraph" unicode="&#xb6;" 
d="M854 1300l-25 -588l-39 -1185q-23 1 -34 1t-33 -1l63 1774h-139l-37 -973l-26 -801q-23 1 -34 1t-33 -1l41 1130q-60 2 -84 5q-47 7 -93 24q-58 21 -101 54t-74 78.5t-47 100t-16 113.5q0 78 30 149t84 115.5t114 56.5t154 12l228 -1q126 0 226 1q-5 -37 -5 -68
q-36 3 -120 3z" />
    <glyph glyph-name="middot" unicode="&#xb7;" horiz-adv-x="132" 
d="M11 638l6 116q41 -1 59 -1t59 1q-2 -28 -3 -57.5t-3 -58.5q-42 2 -59 2t-59 -2z" />
    <glyph glyph-name="cedilla" unicode="&#xb8;" horiz-adv-x="1024" 
d="M651 -102l-122 -240q-34 1 -66 1q-33 0 -67 -1l208 240q15 -1 24 -1q10 0 23 1z" />
    <glyph glyph-name="onesuperior" unicode="&#xb9;" horiz-adv-x="706" 
d="M338 546l10 180l20 564q-2 -1 -72 -45q5 41 5 69q43 24 87 52q12 -1 22 -1q13 0 29 1q-11 -197 -24 -526q-5 -126 -5 -201q0 -37 1 -93l-36 1z" />
    <glyph glyph-name="ordmasculine" unicode="&#xba;" horiz-adv-x="740" 
d="M390 1169q91 0 159.5 -34.5t102.5 -105.5t34 -158q0 -97 -39.5 -180t-109.5 -120t-163 -37q-91 0 -159.5 38t-102.5 107t-34 156q0 99 38 179t113.5 117.5t160.5 37.5zM388 1117q-69 0 -128.5 -32t-88 -99t-28.5 -149q0 -73 25.5 -130t79.5 -89t128 -32q75 0 132 32.5
t85.5 99t28.5 152.5q0 73 -24.5 131.5t-79.5 87t-130 28.5z" />
    <glyph glyph-name="guillemotright" unicode="&#xbb;" horiz-adv-x="776" 
d="M412 883q16 -2 32 -2q18 0 33 2q105 -245 165 -360l-145 -246l-62 -108q-17 1 -31 1q-16 0 -32 -1l74 153q16 32 41 87l53 114zM159 883q17 -2 33 -2q17 0 32 2q105 -245 166 -360l-145 -246l-63 -108q-16 1 -31 1q-16 0 -31 -1l168 354l-40 117l-41 111z" />
    <glyph glyph-name="onequarter" unicode="&#xbc;" horiz-adv-x="1599" 
d="M338 546l10 180l20 564q-2 -1 -72 -45q5 41 5 69q43 24 87 52q12 -1 22 -1q13 0 29 1q-11 -197 -24 -526q-5 -126 -5 -201q0 -37 1 -93l-36 1zM352 0l549 880l208 336l88 149q21 -1 36 -1q16 0 35 1l-277 -441l-486 -786l-82 -138q-20 1 -36 1t-35 -1zM1298 -1
q8 88 12 191l4 117l-171 -1l-181 -2q3 32 3 48v12l150 194l136 178l61 83q26 -1 42 -1q20 0 47 2q-9 -147 -21 -461q78 0 100 1t43 4q-3 -26 -3 -43l1 -17q-93 2 -144 2q-1 -17 -3.5 -117.5t-2.5 -126.5q0 -20 2 -63q-28 2 -38 2t-37 -2zM1316 359l11 311q2 42 2 52v26
l-297 -389h284z" />
    <glyph glyph-name="onehalf" unicode="&#xbd;" horiz-adv-x="1599" 
d="M338 546l10 180l20 564q-2 -1 -72 -45q5 41 5 69q43 24 87 52q12 -1 22 -1q13 0 29 1q-11 -197 -24 -526q-5 -126 -5 -201q0 -37 1 -93l-36 1zM352 0l549 880l208 336l88 149q21 -1 36 -1q16 0 35 1l-277 -441l-486 -786l-82 -138q-20 1 -36 1t-35 -1zM974 0q3 23 3 39
l-1 19l194 197q86 91 146 163.5t87.5 115.5t35.5 68t8 48q0 60 -54 94.5t-142 34.5q-90 0 -237 -36q7 31 11 65q113 23 225 23q76 0 134.5 -19.5t91.5 -60t33 -96.5q0 -29 -6.5 -55t-27.5 -65.5t-70 -100.5q-74 -93 -162.5 -188.5t-189.5 -193.5q20 -1 111 -1q129 0 189 1.5
t128 7.5q-4 -29 -5 -60q-94 1 -244 1z" />
    <glyph glyph-name="threequarters" unicode="&#xbe;" horiz-adv-x="1599" 
d="M86 566q-1 32 -8 71q75 -30 128 -40t101 -10q112 0 182 55.5t70 139.5q0 44 -23.5 81.5t-72 59t-142.5 21.5q-34 0 -86 -4q2 27 2 42v18q34 -6 63 -6q65 0 123 20t89.5 65t31.5 97q0 43 -23 79t-68.5 53t-112.5 17q-89 0 -196 -30q7 33 9 63q113 19 185 19q84 0 147 -22
t93.5 -69t30.5 -106q0 -43 -17.5 -87t-47.5 -72t-85 -46q75 -10 119.5 -62.5t44.5 -130.5q0 -70 -39 -129t-114.5 -89t-172.5 -30q-44 0 -92 6.5t-119 25.5zM351 0l549 880l208 336l89 149q20 -1 35 -1q16 0 36 1l-278 -441l-485 -786l-82 -138q-20 1 -36 1t-36 -1zM1298 -1
q7 88 11 191l5 117l-172 -1l-181 -2q3 32 3 48v12q45 55 150 194l136 178l61 83q27 -1 42 -1q21 0 48 2q-10 -147 -22 -461q78 0 100 1t43 4q-2 -26 -2 -43v-17q-93 2 -144 2q-1 -17 -3.5 -117.5t-2.5 -126.5q0 -20 2 -63q-28 2 -37 2q-10 0 -37 -2zM1316 359l11 311
q1 42 2 52v26l-297 -389h284z" />
    <glyph glyph-name="questiondown" unicode="&#xbf;" horiz-adv-x="911" 
d="M560 1010q-2 -41 -3 -65t-2 -44q-36 1 -56 1q-21 0 -56 -1q2 30 3 57.5t3 51.5q35 -1 56 -1q20 0 55 1zM532 801l-6 -130q-2 -67 -7 -116t-11 -71t-16 -41.5t-45 -64.5t-92 -110l-107 -123q-49 -59 -73 -103t-31.5 -73.5t-7.5 -58.5q0 -70 40.5 -126t119.5 -80.5
t175 -24.5q66 0 135 9.5t198 39.5q-10 -43 -14 -74q-85 -15 -171.5 -22t-146.5 -7q-119 0 -216 30t-144 100.5t-47 148.5q0 35 8 73t37 91.5t80.5 116.5t111.5 126q63 66 96 108q16 21 27 43.5t17.5 51t11.5 91.5l11 196q17 -1 34 -1q18 0 33 1z" />
    <glyph glyph-name="Agrave" unicode="&#xc0;" horiz-adv-x="1318" 
d="M-33 0l335 657l295 582l61 126q25 -1 54 -1q30 0 54 1l194 -550l295 -815q-26 1 -45 1q-20 0 -45 -1q-28 96 -105 317.5t-121 334.5h-565l-315 -652q-25 1 -46 1t-46 -1zM405 717h512l-213 587zM741 1493q-8 2 -20 2q-13 0 -21 -2l-57 100l-107 179q25 -1 58 -1t58 1z
" />
    <glyph glyph-name="Aacute" unicode="&#xc1;" horiz-adv-x="1318" 
d="M-33 0l335 657l295 582l61 126q25 -1 54 -1q30 0 54 1l194 -550l295 -815q-26 1 -45 1q-20 0 -45 -1q-28 96 -105 317.5t-121 334.5h-565l-315 -652q-25 1 -46 1t-46 -1zM405 717h512l-213 587zM686 1493q15 50 32 101l57 178q25 -1 58 -1t58 1l-81 -134
q-57 -97 -83 -145q-8 2 -21 2q-12 0 -20 -2z" />
    <glyph glyph-name="Acircumflex" unicode="&#xc2;" horiz-adv-x="1318" 
d="M-33 0l335 657l295 582l61 126q25 -1 54 -1q30 0 54 1l194 -550l295 -815q-26 1 -45 1q-20 0 -45 -1q-28 96 -105 317.5t-121 334.5h-565l-315 -652q-25 1 -46 1t-46 -1zM405 717h512l-213 587zM525 1514q92 158 134 237q33 -1 65 -1t65 1q52 -103 126 -237q-17 1 -29 1
q-11 0 -28 -1l-134 187l-148 -187q-14 1 -26 1t-25 -1z" />
    <glyph glyph-name="Atilde" unicode="&#xc3;" horiz-adv-x="1318" 
d="M-33 0l335 657l295 582l61 126q25 -1 54 -1q30 0 54 1l194 -550l295 -815q-26 1 -45 1q-20 0 -45 -1q-28 96 -105 317.5t-121 334.5h-565l-315 -652q-25 1 -46 1t-46 -1zM405 717h512l-213 587zM496 1541q0 39 2 68.5t8.5 53.5t18.5 38t30 23t36 9q28 0 61 -17t112 -78
q21 -17 36.5 -25.5t30.5 -8.5q18 0 31 10t19.5 32.5t6.5 75.5q17 -1 29 -1t28 1q-1 -78 -13.5 -115.5t-33.5 -55.5t-52 -18q-21 0 -43.5 10t-71.5 45q-71 52 -92 64t-37 12q-11 0 -21 -4.5t-17 -17t-10 -32.5t-3 -69q-17 1 -28 1t-27 -1z" />
    <glyph glyph-name="Adieresis" unicode="&#xc4;" horiz-adv-x="1318" 
d="M-33 0l335 657l295 582l61 126q25 -1 54 -1q30 0 54 1l194 -550l295 -815q-26 1 -45 1q-20 0 -45 -1q-28 96 -105 317.5t-121 334.5h-565l-315 -652q-25 1 -46 1t-46 -1zM405 717h512l-213 587zM794 1583l3 99q25 -1 51 -1t51 1l-3 -99q-25 1 -51 1q-27 0 -51 -1z
M542 1583l3 99q25 -1 51 -1t51 1l-3 -99q-25 1 -51 1q-27 0 -51 -1z" />
    <glyph glyph-name="Aring" unicode="&#xc5;" horiz-adv-x="1318" 
d="M891 1633q0 -47 -24 -88.5t-65 -65.5t-89 -24q-47 0 -88.5 24t-65 65.5t-23.5 88.5t23.5 88.5t65 65t88.5 23.5q48 0 89 -23.5t65 -65t24 -88.5zM829 1633q0 47 -34 81t-82 34q-47 0 -81 -34t-34 -81q0 -48 34 -82t81 -34q48 0 82 34t34 82zM-33 0l335 657l295 582
l61 126q25 -1 54 -1q30 0 54 1l194 -550l295 -815q-26 1 -45 1q-20 0 -45 -1q-28 96 -105 317.5t-121 334.5h-565l-315 -652q-25 1 -46 1t-46 -1zM405 717h512l-213 587z" />
    <glyph glyph-name="AE" unicode="&#xc6;" horiz-adv-x="1578" 
d="M-126 0l393 763l233 458l27 56l39 88q170 -1 482 -1l286 1h152q-4 -40 -4 -71q-91 4 -178 5q-284 4 -613 4l124 -579q144 -3 333 -3q158 0 256 3q-4 -29 -5 -69l-93 4l-42 1h-72l-151 1l-134 1h-80l129 -599q153 -1 238 -1q87 0 224 9q-4 -40 -4 -71q-143 1 -246 1
l-275 -1l-120 570q-3 15 -21 92h-460l-225 -441l-105 -221q-26 1 -44 1q-19 0 -44 -1zM322 724h418l-37 181q-21 106 -24 117l-64 287z" />
    <glyph glyph-name="Ccedilla" unicode="&#xc7;" horiz-adv-x="1250" 
d="M1155 106q-8 -35 -13 -82q-102 -25 -191.5 -35t-160.5 -10q-146 0 -277 47t-225 139.5t-138 219.5t-44 267q0 156 51.5 302t150.5 242.5t237.5 143t295.5 46.5q53 0 114.5 -5t101 -11t105.5 -20q2 -41 9 -86q-110 36 -189.5 48t-153.5 12q-129 0 -248 -40t-210 -128.5
t-139.5 -219t-48.5 -269.5q0 -134 40 -255.5t122 -203.5t195 -124.5t247 -42.5q165 0 369 65zM820 -105q-117 -227 -138 -276q-34 1 -72 1t-71 -1q32 44 81 103l136 173q16 -1 32 -1q17 0 32 1z" />
    <glyph glyph-name="Egrave" unicode="&#xc8;" horiz-adv-x="1073" 
d="M149 0q19 271 34.5 699.5t15.5 665.5q222 -1 417 -1l365 1q-4 -40 -4 -71l-80 6q-31 3 -108 3.5t-151 0.5q-237 0 -360 -1l-20 -573q151 -3 277 -3q150 0 370 3q-4 -30 -5 -66l-377 3q-66 0 -268 -3l-21 -601l287 -1q169 0 234.5 1.5t178.5 7.5q-5 -40 -5 -71
q-240 1 -351 1zM606 1493q-8 2 -20 2q-13 0 -21 -2l-57 100l-107 179q25 -1 58 -1t58 1z" />
    <glyph glyph-name="Eacute" unicode="&#xc9;" horiz-adv-x="1073" 
d="M149 0q19 271 34.5 699.5t15.5 665.5q222 -1 417 -1l365 1q-4 -40 -4 -71l-80 6q-31 3 -108 3.5t-151 0.5q-237 0 -360 -1l-20 -573q151 -3 277 -3q150 0 370 3q-4 -30 -5 -66l-377 3q-66 0 -268 -3l-21 -601l287 -1q169 0 234.5 1.5t178.5 7.5q-5 -40 -5 -71
q-240 1 -351 1zM551 1493q15 50 32 101l57 178q25 -1 58 -1t58 1l-81 -134q-57 -97 -83 -145q-8 2 -21 2q-12 0 -20 -2z" />
    <glyph glyph-name="Ecircumflex" unicode="&#xca;" horiz-adv-x="1073" 
d="M149 0q19 271 34.5 699.5t15.5 665.5q222 -1 417 -1l365 1q-4 -40 -4 -71l-80 6q-31 3 -108 3.5t-151 0.5q-237 0 -360 -1l-20 -573q151 -3 277 -3q150 0 370 3q-4 -30 -5 -66l-377 3q-66 0 -268 -3l-21 -601l287 -1q169 0 234.5 1.5t178.5 7.5q-5 -40 -5 -71
q-240 1 -351 1zM391 1514q92 158 134 237q33 -1 65 -1t65 1q52 -103 126 -237q-17 1 -29 1q-11 0 -28 -1l-134 187l-148 -187q-14 1 -26 1t-25 -1z" />
    <glyph glyph-name="Edieresis" unicode="&#xcb;" horiz-adv-x="1073" 
d="M149 0q19 271 34.5 699.5t15.5 665.5q222 -1 417 -1l365 1q-4 -40 -4 -71l-80 6q-31 3 -108 3.5t-151 0.5q-237 0 -360 -1l-20 -573q151 -3 277 -3q150 0 370 3q-4 -30 -5 -66l-377 3q-66 0 -268 -3l-21 -601l287 -1q169 0 234.5 1.5t178.5 7.5q-5 -40 -5 -71
q-240 1 -351 1zM659 1583l3 99q25 -1 51 -1t51 1l-3 -99q-25 1 -51 1q-27 0 -51 -1zM407 1583l3 99q25 -1 51 -1t51 1l-3 -99q-25 1 -51 1q-27 0 -51 -1z" />
    <glyph glyph-name="Igrave" unicode="&#xcc;" horiz-adv-x="426" 
d="M126 0l22 401l20 601l4 208q1 83 1 155q26 -1 45 -1q20 0 45 1l-18 -362l-24 -745l-5 -258q-25 1 -45 1t-45 -1zM263 1494q-8 2 -20 2q-13 0 -21 -2l-57 100l-107 179q25 -1 58 -1t58 1z" />
    <glyph glyph-name="Iacute" unicode="&#xcd;" horiz-adv-x="426" 
d="M149 0l22 401l20 601l4 208q1 83 1 155q26 -1 45 -1q20 0 45 1l-18 -362l-24 -745l-5 -258q-25 1 -45 1t-45 -1zM224 1494q15 50 32 101l57 178q25 -1 58 -1t58 1l-81 -135q-57 -96 -83 -144q-8 2 -21 2q-12 0 -20 -2z" />
    <glyph glyph-name="Icircumflex" unicode="&#xce;" horiz-adv-x="426" 
d="M162 0l22 401l20 601l4 208q1 83 1 155q26 -1 45 -1q20 0 45 1l-18 -362l-24 -745l-5 -258q-25 1 -45 1t-45 -1zM73 1514q92 158 134 237q33 -1 65 -1t65 1q52 -103 126 -237q-17 1 -29 1q-11 0 -28 -1l-134 187l-148 -187q-14 1 -26 1t-25 -1z" />
    <glyph glyph-name="Idieresis" unicode="&#xcf;" horiz-adv-x="426" 
d="M174 0l22 401l20 601l4 208q1 83 1 155q26 -1 45 -1q20 0 45 1l-18 -362l-24 -745l-5 -258q-25 1 -45 1t-45 -1zM354 1583l3 99q25 -1 51 -1t51 1l-3 -99q-25 1 -51 1q-27 0 -51 -1zM102 1583l3 99q25 -1 51 -1t51 1l-3 -99q-25 1 -51 1q-27 0 -51 -1z" />
    <glyph glyph-name="Eth" unicode="&#xd0;" horiz-adv-x="1478" 
d="M43 665q4 32 5 64q92 -3 140 -3l16 463q2 73 2 176l221 -1l274 1q193 0 309.5 -30t207 -123.5t129 -212t38.5 -255.5q0 -163 -58.5 -314.5t-173 -254.5t-259 -139t-315.5 -36l-212 1l-218 -1q25 363 37 668q-43 0 -143 -3zM263 725h116q136 0 292 4q-5 -32 -5 -64
q-143 5 -311 5l-95 -1l-25 -606q202 -3 285 -3q100 0 205 10t188 36.5t163.5 95.5t131.5 153.5t76.5 188t25.5 209.5q0 102 -24 196q-18 68 -52 127q-39 67 -90.5 113.5t-107.5 70t-141 33.5q-75 10 -177 11h-238l-193 -1z" />
    <glyph glyph-name="Ntilde" unicode="&#xd1;" horiz-adv-x="1486" 
d="M149 0l23 394l28 810l3 161q24 -1 60 -1q37 0 61 1l83 -131q33 -50 138 -199l513 -740l159 -224l43 1139l3 155q26 -1 41 -1q16 0 42 1l-19 -314l-32 -854l-4 -197q-35 1 -61 1t-60 -1l-183 272l-634 912l-74 101q-3 -51 -5 -105l-36 -936l-5 -244q-26 1 -42 1t-42 -1z
M567 1541q0 39 2 68.5t8.5 53.5t18.5 38t30 23t36 9q28 0 61 -17t112 -78q21 -17 36.5 -25.5t30.5 -8.5q18 0 31 10t19.5 32.5t6.5 75.5q17 -1 29 -1t28 1q-1 -78 -13.5 -115.5t-33.5 -55.5t-52 -18q-21 0 -43.5 10t-71.5 45q-71 52 -92 64t-37 12q-11 0 -21 -4.5t-17 -17
t-10 -32.5t-3 -69q-17 1 -28 1t-27 -1z" />
    <glyph glyph-name="Ograve" unicode="&#xd2;" horiz-adv-x="1593" 
d="M831 1386q143 0 270.5 -43t222.5 -140t135.5 -222.5t40.5 -266.5q0 -155 -46 -298t-139 -240t-232.5 -147t-292.5 -50q-147 0 -282 46.5t-226 137t-133.5 218t-42.5 267.5q0 157 52 304.5t150.5 244.5t235.5 143t287 46zM828 1324q-138 0 -260 -42.5t-212 -138t-132 -225
t-42 -270.5q0 -133 44 -255t129 -202t199.5 -115t241.5 -35q134 0 253.5 39t207 130t128 218.5t40.5 269.5q0 135 -37.5 257t-120.5 207.5t-197 123.5t-242 38zM858 1493q-8 2 -20 2q-13 0 -21 -2l-57 100l-107 179q25 -1 58 -1t58 1z" />
    <glyph glyph-name="Oacute" unicode="&#xd3;" horiz-adv-x="1593" 
d="M831 1386q143 0 270.5 -43t222.5 -140t135.5 -222.5t40.5 -266.5q0 -155 -46 -298t-139 -240t-232.5 -147t-292.5 -50q-147 0 -282 46.5t-226 137t-133.5 218t-42.5 267.5q0 157 52 304.5t150.5 244.5t235.5 143t287 46zM828 1324q-138 0 -260 -42.5t-212 -138t-132 -225
t-42 -270.5q0 -133 44 -255t129 -202t199.5 -115t241.5 -35q134 0 253.5 39t207 130t128 218.5t40.5 269.5q0 135 -37.5 257t-120.5 207.5t-197 123.5t-242 38zM803 1493q15 50 32 101l57 178q25 -1 58 -1t58 1l-81 -135q-57 -96 -83 -144q-8 2 -21 2q-12 0 -20 -2z" />
    <glyph glyph-name="Ocircumflex" unicode="&#xd4;" horiz-adv-x="1593" 
d="M831 1386q143 0 270.5 -43t222.5 -140t135.5 -222.5t40.5 -266.5q0 -155 -46 -298t-139 -240t-232.5 -147t-292.5 -50q-147 0 -282 46.5t-226 137t-133.5 218t-42.5 267.5q0 157 52 304.5t150.5 244.5t235.5 143t287 46zM828 1324q-138 0 -260 -42.5t-212 -138t-132 -225
t-42 -270.5q0 -133 44 -255t129 -202t199.5 -115t241.5 -35q134 0 253.5 39t207 130t128 218.5t40.5 269.5q0 135 -37.5 257t-120.5 207.5t-197 123.5t-242 38zM642 1514q92 158 134 237q33 -1 65 -1t65 1q52 -103 126 -237q-17 1 -29 1q-11 0 -28 -1l-134 187l-148 -187
q-14 1 -26 1t-25 -1z" />
    <glyph glyph-name="Otilde" unicode="&#xd5;" horiz-adv-x="1593" 
d="M831 1386q143 0 270.5 -43t222.5 -140t135.5 -222.5t40.5 -266.5q0 -155 -46 -298t-139 -240t-232.5 -147t-292.5 -50q-147 0 -282 46.5t-226 137t-133.5 218t-42.5 267.5q0 157 52 304.5t150.5 244.5t235.5 143t287 46zM828 1324q-138 0 -260 -42.5t-212 -138t-132 -225
t-42 -270.5q0 -133 44 -255t129 -202t199.5 -115t241.5 -35q134 0 253.5 39t207 130t128 218.5t40.5 269.5q0 135 -37.5 257t-120.5 207.5t-197 123.5t-242 38zM613 1541q0 39 2 68.5t8.5 53.5t18.5 38t30 23t36 9q28 0 61 -17t112 -78q21 -17 36.5 -25.5t30.5 -8.5
q18 0 31 10t19.5 32.5t6.5 75.5q17 -1 29 -1t28 1q-1 -78 -13.5 -115.5t-33.5 -55.5t-52 -18q-21 0 -43.5 10t-71.5 45q-71 52 -92 64t-37 12q-11 0 -21 -4.5t-17 -17t-10 -32.5t-3 -69q-17 1 -28 1t-27 -1z" />
    <glyph glyph-name="Odieresis" unicode="&#xd6;" horiz-adv-x="1593" 
d="M831 1386q143 0 270.5 -43t222.5 -140t135.5 -222.5t40.5 -266.5q0 -155 -46 -298t-139 -240t-232.5 -147t-292.5 -50q-147 0 -282 46.5t-226 137t-133.5 218t-42.5 267.5q0 157 52 304.5t150.5 244.5t235.5 143t287 46zM828 1324q-138 0 -260 -42.5t-212 -138t-132 -225
t-42 -270.5q0 -133 44 -255t129 -202t199.5 -115t241.5 -35q134 0 253.5 39t207 130t128 218.5t40.5 269.5q0 135 -37.5 257t-120.5 207.5t-197 123.5t-242 38zM911 1583l3 99q25 -1 51 -1t51 1l-3 -99q-25 1 -51 1q-27 0 -51 -1zM659 1583l3 99q25 -1 51 -1t51 1l-3 -99
q-25 1 -51 1q-27 0 -51 -1z" />
    <glyph glyph-name="multiply" unicode="&#xd7;" 
d="M261 373q-22 27 -43 48l299 282l-281 284q31 25 50 45q71 -80 271 -290l152 149l143 143q21 -28 43 -49l-300 -282l163 -166l119 -118q-33 -26 -50 -44l-272 289z" />
    <glyph glyph-name="Oslash" unicode="&#xd8;" horiz-adv-x="1593" 
d="M1190 1304l106 154q20 -1 35 -1q16 0 35 1l-127 -184q86 -58 146.5 -144.5t87.5 -194t27 -221.5q0 -156 -46.5 -299.5t-141.5 -241t-234.5 -145.5t-293.5 -48q-98 0 -196.5 23t-177.5 66l-111 -162q-20 2 -37 2t-37 -2l133 193q-131 90 -191.5 233.5t-60.5 314.5
q0 158 52.5 305.5t151.5 245t236.5 142.5t288.5 45q97 0 189 -21t166 -61zM397 156l755 1094q-65 37 -153 55.5t-176 18.5q-136 0 -257.5 -43.5t-210.5 -138t-131 -224t-42 -270.5q0 -147 53 -279t162 -213zM1202 1219l-755 -1096q48 -27 94.5 -43t114.5 -27.5t143 -11.5
q134 0 254 40.5t206.5 132.5t126 219t39.5 271q0 160 -53.5 295.5t-169.5 219.5z" />
    <glyph glyph-name="Ugrave" unicode="&#xd9;" horiz-adv-x="1441" 
d="M194 1365q25 -1 45 -1q21 0 46 1l-46 -820l-2 -74v-17q0 -120 31 -196.5t99.5 -127t150 -70t177.5 -19.5q92 0 177 19q64 14 118 43q43 23 78 58t59.5 79.5t35.5 93.5q20 96 26 235l20 411q10 232 10 385q26 -1 44 -1t44 1l-26 -455l-17 -401q-8 -132 -30 -219
q-14 -52 -41 -99q-26 -43 -62 -76q-41 -38 -99 -67q-63 -32 -136 -48q-96 -20 -198 -20q-112 0 -203 22q-80 19 -147 60t-109 94q-35 43 -56 112t-21 167q0 88 6 207l23 534q3 93 3 189zM789 1493q-8 2 -20 2q-13 0 -21 -2l-57 100l-107 179q25 -1 58 -1t58 1z" />
    <glyph glyph-name="Uacute" unicode="&#xda;" horiz-adv-x="1441" 
d="M194 1365q25 -1 45 -1q21 0 46 1l-46 -820l-2 -74v-17q0 -120 31 -196.5t99.5 -127t150 -70t177.5 -19.5q92 0 177 19q64 14 118 43q43 23 78 58t59.5 79.5t35.5 93.5q20 96 26 235l20 411q10 232 10 385q26 -1 44 -1t44 1l-26 -455l-17 -401q-8 -132 -30 -219
q-14 -52 -41 -99q-26 -43 -62 -76q-41 -38 -99 -67q-63 -32 -136 -48q-96 -20 -198 -20q-112 0 -203 22q-80 19 -147 60t-109 94q-35 43 -56 112t-21 167q0 88 6 207l23 534q3 93 3 189zM734 1493q15 50 32 101l57 178q25 -1 58 -1t58 1l-81 -134q-57 -97 -83 -145
q-8 2 -21 2q-12 0 -20 -2z" />
    <glyph glyph-name="Ucircumflex" unicode="&#xdb;" horiz-adv-x="1441" 
d="M194 1365q25 -1 45 -1q21 0 46 1l-46 -820l-2 -74v-17q0 -120 31 -196.5t99.5 -127t150 -70t177.5 -19.5q92 0 177 19q64 14 118 43q43 23 78 58t59.5 79.5t35.5 93.5q20 96 26 235l20 411q10 232 10 385q26 -1 44 -1t44 1l-26 -455l-17 -401q-8 -132 -30 -219
q-14 -52 -41 -99q-26 -43 -62 -76q-41 -38 -99 -67q-63 -32 -136 -48q-96 -20 -198 -20q-112 0 -203 22q-80 19 -147 60t-109 94q-35 43 -56 112t-21 167q0 88 6 207l23 534q3 93 3 189zM574 1514q92 158 134 237q33 -1 65 -1t65 1q52 -103 126 -237q-17 1 -29 1
q-11 0 -28 -1l-134 187l-148 -187q-14 1 -26 1t-25 -1z" />
    <glyph glyph-name="Udieresis" unicode="&#xdc;" horiz-adv-x="1441" 
d="M194 1365q25 -1 45 -1q21 0 46 1l-46 -820l-2 -74v-17q0 -120 31 -196.5t99.5 -127t150 -70t177.5 -19.5q92 0 177 19q64 14 118 43q43 23 78 58t59.5 79.5t35.5 93.5q20 96 26 235l20 411q10 232 10 385q26 -1 44 -1t44 1l-26 -455l-17 -401q-8 -132 -30 -219
q-14 -52 -41 -99q-26 -43 -62 -76q-41 -38 -99 -67q-63 -32 -136 -48q-96 -20 -198 -20q-112 0 -203 22q-80 19 -147 60t-109 94q-35 43 -56 112t-21 167q0 88 6 207l23 534q3 93 3 189zM842 1583l3 99q25 -1 51 -1t51 1l-3 -99q-25 1 -51 1q-27 0 -51 -1zM590 1583l3 99
q25 -1 51 -1t51 1l-3 -99q-25 1 -51 1q-27 0 -51 -1z" />
    <glyph glyph-name="Yacute" unicode="&#xdd;" horiz-adv-x="987" 
d="M408 0l30 433l10 186l-134 238l-296 508q26 -1 45 -1q20 0 45 1l43 -81q13 -25 83 -145l258 -451l239 358l147 229l55 90q26 -1 46 -1t46 1l-504 -750q-1 -49 -4 -93l-13 -257q-3 -57 -5 -126l-2 -139q-26 1 -45 1t-44 -1zM501 1493q15 50 32 101l57 178q25 -1 58 -1
t58 1l-81 -134q-57 -97 -83 -145q-8 2 -21 2q-12 0 -20 -2z" />
    <glyph glyph-name="Thorn" unicode="&#xde;" horiz-adv-x="1028" 
d="M149 0l20 323l22 526l10 383v133q26 -1 42 -1q18 0 43 1q-3 -45 -9 -191q112 -1 200 -1l169 1q80 0 138.5 -13.5t105 -56t71.5 -103t25 -128.5q0 -123 -63.5 -218.5t-171 -142.5t-243.5 -47q-77 0 -170 18q-8 29 -20 61q90 -18 178 -18q85 0 163 20t133.5 65.5t86.5 114
t31 144.5q0 46 -14.5 88t-36 69.5t-52 45.5t-63.5 25.5t-95 10.5q-28 1 -115 1h-260l-26 -838l-5 -272q-26 1 -47 1q-22 0 -47 -1z" />
    <glyph glyph-name="germandbls" unicode="&#xdf;" horiz-adv-x="1082" 
d="M120 0l10 107l44 949q4 62 16.5 112.5t38.5 87t70 66t96 44.5q68 20 144 20q93 0 167 -27t110 -78t36 -133q0 -50 -9.5 -100t-33.5 -69t-92 -39q-44 -12 -61.5 -22.5t-26.5 -29.5t-9 -49q0 -22 5 -43t13.5 -36t23 -30t26.5 -23l73 -50l59 -40q35 -24 69 -57t58 -67.5
t36 -66t16 -62t4 -61.5q0 -100 -39 -174t-115 -112t-179 -38q-102 0 -214 32q-2 37 -10 81q79 -31 132.5 -44t101.5 -13q73 0 130.5 34t87.5 92t30 132q0 34 -6.5 65.5t-19 60t-29 51t-41.5 46.5t-41 36t-82 57l-58 40q-27 19 -47 38.5t-30.5 37t-16 41.5t-5.5 59
q0 37 8 68.5t19 46.5t30 26.5t61 24t57.5 20.5t24 17.5t14 25.5t8.5 39t3 51q0 48 -14.5 83t-49 60t-77.5 34t-85 9q-81 0 -140 -22q-44 -17 -80 -51q-38 -36 -57 -80q-23 -52 -29 -151q-6 -89 -25 -519q-13 -281 -18 -507q-26 1 -41 1t-41 -1z" />
    <glyph glyph-name="agrave" unicode="&#xe0;" horiz-adv-x="1021" 
d="M182 904q7 34 11 78q102 28 177 38.5t152 10.5q89 0 165.5 -15.5t125 -52t64 -83.5t15.5 -96q0 -50 -3.5 -126.5t-9.5 -164.5t-11 -219.5t-5 -189.5v-84q-26 1 -42 1q-17 0 -42 -1q14 153 19.5 248t9 204.5t9.5 204.5q-31 -26 -47.5 -38.5t-36 -22.5t-47 -20.5t-50.5 -18
t-111.5 -31.5t-126.5 -36q-86 -28 -133 -53q-51 -27 -85 -60q-30 -29 -44 -61q-16 -38 -16 -81q0 -65 39 -113t98.5 -67.5t143.5 -19.5q42 0 81 4.5t73.5 12t99.5 28.5q-9 -38 -15 -76q-81 -16 -131.5 -20.5t-95.5 -4.5q-84 0 -155 13t-119 51t-71 88t-23 105q0 42 14 81.5
t43 75.5q24 30 64 56q47 32 104 54q66 26 142 48q21 6 165 43q65 17 123 42.5t90 71t32 92.5q0 34 -15 65.5t-53.5 59.5t-95.5 39t-120 11q-73 0 -137 -9.5t-108 -22t-111 -39.5zM579 1137q-8 2 -20 2q-13 0 -21 -2l-57 100l-107 179q25 -1 58 -1t58 1z" />
    <glyph glyph-name="aacute" unicode="&#xe1;" horiz-adv-x="1021" 
d="M182 904q7 34 11 78q102 28 177 38.5t152 10.5q89 0 165.5 -15.5t125 -52t64 -83.5t15.5 -96q0 -50 -3.5 -126.5t-9.5 -164.5t-11 -219.5t-5 -189.5v-84q-26 1 -42 1q-17 0 -42 -1q14 153 19.5 248t9 204.5t9.5 204.5q-31 -26 -47.5 -38.5t-36 -22.5t-47 -20.5t-50.5 -18
t-111.5 -31.5t-126.5 -36q-86 -28 -133 -53q-51 -27 -85 -60q-30 -29 -44 -61q-16 -38 -16 -81q0 -65 39 -113t98.5 -67.5t143.5 -19.5q42 0 81 4.5t73.5 12t99.5 28.5q-9 -38 -15 -76q-81 -16 -131.5 -20.5t-95.5 -4.5q-84 0 -155 13t-119 51t-71 88t-23 105q0 42 14 81.5
t43 75.5q24 30 64 56q47 32 104 54q66 26 142 48q21 6 165 43q65 17 123 42.5t90 71t32 92.5q0 34 -15 65.5t-53.5 59.5t-95.5 39t-120 11q-73 0 -137 -9.5t-108 -22t-111 -39.5zM476 1137q15 50 32 101l57 178q25 -1 58 -1t58 1l-81 -135q-57 -96 -83 -144q-8 2 -21 2
q-12 0 -20 -2z" />
    <glyph glyph-name="acircumflex" unicode="&#xe2;" horiz-adv-x="1021" 
d="M182 904q7 34 11 78q102 28 177 38.5t152 10.5q89 0 165.5 -15.5t125 -52t64 -83.5t15.5 -96q0 -50 -3.5 -126.5t-9.5 -164.5t-11 -219.5t-5 -189.5v-84q-26 1 -42 1q-17 0 -42 -1q14 153 19.5 248t9 204.5t9.5 204.5q-31 -26 -47.5 -38.5t-36 -22.5t-47 -20.5t-50.5 -18
t-111.5 -31.5t-126.5 -36q-86 -28 -133 -53q-51 -27 -85 -60q-30 -29 -44 -61q-16 -38 -16 -81q0 -65 39 -113t98.5 -67.5t143.5 -19.5q42 0 81 4.5t73.5 12t99.5 28.5q-9 -38 -15 -76q-81 -16 -131.5 -20.5t-95.5 -4.5q-84 0 -155 13t-119 51t-71 88t-23 105q0 42 14 81.5
t43 75.5q24 30 64 56q47 32 104 54q66 26 142 48q21 6 165 43q65 17 123 42.5t90 71t32 92.5q0 34 -15 65.5t-53.5 59.5t-95.5 39t-120 11q-73 0 -137 -9.5t-108 -22t-111 -39.5zM350 1158q92 158 134 237q33 -1 65 -1t65 1q52 -103 126 -237q-17 1 -29 1q-11 0 -28 -1
l-134 187l-148 -187q-14 1 -26 1t-25 -1z" />
    <glyph glyph-name="atilde" unicode="&#xe3;" horiz-adv-x="1021" 
d="M182 904q7 34 11 78q102 28 177 38.5t152 10.5q89 0 165.5 -15.5t125 -52t64 -83.5t15.5 -96q0 -50 -3.5 -126.5t-9.5 -164.5t-11 -219.5t-5 -189.5v-84q-26 1 -42 1q-17 0 -42 -1q14 153 19.5 248t9 204.5t9.5 204.5q-31 -26 -47.5 -38.5t-36 -22.5t-47 -20.5t-50.5 -18
t-111.5 -31.5t-126.5 -36q-86 -28 -133 -53q-51 -27 -85 -60q-30 -29 -44 -61q-16 -38 -16 -81q0 -65 39 -113t98.5 -67.5t143.5 -19.5q42 0 81 4.5t73.5 12t99.5 28.5q-9 -38 -15 -76q-81 -16 -131.5 -20.5t-95.5 -4.5q-84 0 -155 13t-119 51t-71 88t-23 105q0 42 14 81.5
t43 75.5q24 30 64 56q47 32 104 54q66 26 142 48q21 6 165 43q65 17 123 42.5t90 71t32 92.5q0 34 -15 65.5t-53.5 59.5t-95.5 39t-120 11q-73 0 -137 -9.5t-108 -22t-111 -39.5zM313 1177q0 39 2 68.5t8.5 53.5t18.5 38t30 23t36 9q28 0 61 -17t112 -78q21 -17 36.5 -25.5
t30.5 -8.5q18 0 31 10t19.5 32.5t6.5 75.5q17 -1 29 -1t28 1q-1 -78 -13.5 -115.5t-33.5 -55.5t-52 -18q-21 0 -43.5 10t-71.5 45q-71 52 -92 64t-37 12q-11 0 -21 -4.5t-17 -17t-10 -32.5t-3 -69q-17 1 -28 1t-27 -1z" />
    <glyph glyph-name="adieresis" unicode="&#xe4;" horiz-adv-x="1021" 
d="M182 904q7 34 11 78q102 28 177 38.5t152 10.5q89 0 165.5 -15.5t125 -52t64 -83.5t15.5 -96q0 -50 -3.5 -126.5t-9.5 -164.5t-11 -219.5t-5 -189.5v-84q-26 1 -42 1q-17 0 -42 -1q14 153 19.5 248t9 204.5t9.5 204.5q-31 -26 -47.5 -38.5t-36 -22.5t-47 -20.5t-50.5 -18
t-111.5 -31.5t-126.5 -36q-86 -28 -133 -53q-51 -27 -85 -60q-30 -29 -44 -61q-16 -38 -16 -81q0 -65 39 -113t98.5 -67.5t143.5 -19.5q42 0 81 4.5t73.5 12t99.5 28.5q-9 -38 -15 -76q-81 -16 -131.5 -20.5t-95.5 -4.5q-84 0 -155 13t-119 51t-71 88t-23 105q0 42 14 81.5
t43 75.5q24 30 64 56q47 32 104 54q66 26 142 48q21 6 165 43q65 17 123 42.5t90 71t32 92.5q0 34 -15 65.5t-53.5 59.5t-95.5 39t-120 11q-73 0 -137 -9.5t-108 -22t-111 -39.5zM614 1227l3 99q25 -1 51 -1t51 1l-3 -99q-25 1 -51 1q-27 0 -51 -1zM362 1227l3 99
q25 -1 51 -1t51 1l-3 -99q-25 1 -51 1q-27 0 -51 -1z" />
    <glyph glyph-name="aring" unicode="&#xe5;" horiz-adv-x="1021" 
d="M182 904q7 34 11 78q102 28 177 38.5t152 10.5q89 0 165.5 -15.5t125 -52t64 -83.5t15.5 -96q0 -50 -3.5 -126.5t-9.5 -164.5t-11 -219.5t-5 -189.5v-84q-26 1 -42 1q-17 0 -42 -1q14 153 19.5 248t9 204.5t9.5 204.5q-31 -26 -47.5 -38.5t-36 -22.5t-47 -20.5t-50.5 -18
t-111.5 -31.5t-126.5 -36q-86 -28 -133 -53q-51 -27 -85 -60q-30 -29 -44 -61q-16 -38 -16 -81q0 -65 39 -113t98.5 -67.5t143.5 -19.5q42 0 81 4.5t73.5 12t99.5 28.5q-9 -38 -15 -76q-81 -16 -131.5 -20.5t-95.5 -4.5q-84 0 -155 13t-119 51t-71 88t-23 105q0 42 14 81.5
t43 75.5q24 30 64 56q47 32 104 54q66 26 142 48q21 6 165 43q65 17 123 42.5t90 71t32 92.5q0 34 -15 65.5t-53.5 59.5t-95.5 39t-120 11q-73 0 -137 -9.5t-108 -22t-111 -39.5zM716 1311q0 -48 -24 -89t-65 -65t-89 -24q-47 0 -88 24t-65 65t-24 89q0 47 24 88.5t65 65
t88 23.5q48 0 89 -23.5t65 -65t24 -88.5zM657 1310q0 48 -35 82t-84 34q-48 0 -83 -34t-35 -82t35 -82.5t83 -34.5q49 0 84 34.5t35 82.5z" />
    <glyph glyph-name="ae" unicode="&#xe6;" horiz-adv-x="1662" 
d="M169 906q7 41 9 75q57 19 94 27.5t99 15.5t122 7q58 0 112.5 -7.5t91.5 -20.5t63 -29.5t43 -36.5t28 -46t20 -77q41 63 71.5 96t78 62.5t102 44t112.5 14.5q105 0 193 -45.5t138.5 -130.5t50.5 -217q0 -28 -5 -60h-739q-6 -73 -6 -113q0 -120 46 -221t135 -155t210 -54
q52 0 110 10.5t148 39.5q-9 -42 -13 -79q-124 -27 -237 -27q-157 0 -262.5 60.5t-158 176t-52.5 254.5q0 42 5 90.5t25 128.5q-30 -44 -56 -66t-75.5 -42t-125 -42t-151.5 -49t-119 -47t-70 -38.5t-49 -45.5t-33 -57t-11 -62q0 -62 36.5 -111t106.5 -71.5t148 -22.5
q54 0 131.5 15t153.5 45q-10 -36 -16 -76q-167 -40 -268 -40q-96 0 -185.5 30t-135.5 92t-46 139q0 43 15 84.5t50.5 81.5t83 66.5t87.5 41t150.5 47.5t161.5 51q73 26 105 45.5t53 44t30 48.5t9 53q0 50 -30.5 91t-92 61t-153.5 20q-63 0 -123 -9t-104 -21.5t-111 -38.5z
M861 640h664q0 59 -5 94.5t-23 75t-48 72t-66 53t-78.5 30.5t-87.5 10q-54 0 -102.5 -14t-90 -40.5t-73.5 -64.5t-51.5 -82t-38.5 -134z" />
    <glyph glyph-name="ccedilla" unicode="&#xe7;" horiz-adv-x="937" 
d="M822 80q-10 -41 -14 -76q-127 -25 -237 -25q-104 0 -194.5 29t-155.5 93.5t-96.5 162t-31.5 204.5q0 146 49.5 278t158 208.5t293.5 76.5q135 0 257 -37q1 -33 7 -70q-104 32 -163 41.5t-108 9.5q-105 0 -186 -40.5t-134.5 -114.5t-76 -165.5t-22.5 -183.5q0 -99 25 -185
t80 -140t135 -82.5t168 -28.5q49 0 104 9.5t142 35.5zM608 -102l-122 -240q-34 1 -66 1q-33 0 -67 -1l208 240q15 -1 24 -1q10 0 23 1z" />
    <glyph glyph-name="egrave" unicode="&#xe8;" horiz-adv-x="1032" 
d="M882 97q-8 -37 -12 -75q-83 -24 -149 -33.5t-135 -9.5q-120 0 -212.5 32.5t-158.5 108t-94 169.5t-28 200q0 139 48 260.5t158 201.5t273 80q112 0 203 -41.5t141.5 -135.5t50.5 -223q0 -24 -2 -46l-791 -1q-5 -65 -5 -98q0 -95 28 -184t84.5 -149t135.5 -89t167 -29
q134 0 298 62zM183 639l711 -1q-1 69 -8 106t-26 76t-45.5 67.5t-62 48t-79.5 29.5t-92 10q-53 0 -104 -12t-93 -33t-78.5 -53.5t-60 -70.5t-36 -72.5t-26.5 -94.5zM612 1137q-8 2 -20 2q-13 0 -21 -2l-57 100l-107 179q25 -1 58 -1t58 1z" />
    <glyph glyph-name="eacute" unicode="&#xe9;" horiz-adv-x="1032" 
d="M882 97q-8 -37 -12 -75q-83 -24 -149 -33.5t-135 -9.5q-120 0 -212.5 32.5t-158.5 108t-94 169.5t-28 200q0 139 48 260.5t158 201.5t273 80q112 0 203 -41.5t141.5 -135.5t50.5 -223q0 -24 -2 -46l-791 -1q-5 -65 -5 -98q0 -95 28 -184t84.5 -149t135.5 -89t167 -29
q134 0 298 62zM183 639l711 -1q-1 69 -8 106t-26 76t-45.5 67.5t-62 48t-79.5 29.5t-92 10q-53 0 -104 -12t-93 -33t-78.5 -53.5t-60 -70.5t-36 -72.5t-26.5 -94.5zM510 1137q15 50 32 101l57 178q25 -1 58 -1t58 1l-81 -135q-57 -96 -83 -144q-8 2 -21 2q-12 0 -20 -2z" />
    <glyph glyph-name="ecircumflex" unicode="&#xea;" horiz-adv-x="1032" 
d="M882 97q-8 -37 -12 -75q-83 -24 -149 -33.5t-135 -9.5q-120 0 -212.5 32.5t-158.5 108t-94 169.5t-28 200q0 139 48 260.5t158 201.5t273 80q112 0 203 -41.5t141.5 -135.5t50.5 -223q0 -24 -2 -46l-791 -1q-5 -65 -5 -98q0 -95 28 -184t84.5 -149t135.5 -89t167 -29
q134 0 298 62zM183 639l711 -1q-1 69 -8 106t-26 76t-45.5 67.5t-62 48t-79.5 29.5t-92 10q-53 0 -104 -12t-93 -33t-78.5 -53.5t-60 -70.5t-36 -72.5t-26.5 -94.5zM383 1158q92 158 134 237q33 -1 65 -1t65 1q52 -103 126 -237q-17 1 -29 1q-11 0 -28 -1l-134 187
l-148 -187q-14 1 -26 1t-25 -1z" />
    <glyph glyph-name="edieresis" unicode="&#xeb;" horiz-adv-x="1032" 
d="M882 97q-8 -37 -12 -75q-83 -24 -149 -33.5t-135 -9.5q-120 0 -212.5 32.5t-158.5 108t-94 169.5t-28 200q0 139 48 260.5t158 201.5t273 80q112 0 203 -41.5t141.5 -135.5t50.5 -223q0 -24 -2 -46l-791 -1q-5 -65 -5 -98q0 -95 28 -184t84.5 -149t135.5 -89t167 -29
q134 0 298 62zM183 639l711 -1q-1 69 -8 106t-26 76t-45.5 67.5t-62 48t-79.5 29.5t-92 10q-53 0 -104 -12t-93 -33t-78.5 -53.5t-60 -70.5t-36 -72.5t-26.5 -94.5zM645 1227l3 99q25 -1 51 -1t51 1l-3 -99q-25 1 -51 1q-27 0 -51 -1zM393 1227l3 99q25 -1 51 -1t51 1
l-3 -99q-25 1 -51 1q-27 0 -51 -1z" />
    <glyph glyph-name="igrave" unicode="&#xec;" horiz-adv-x="383" 
d="M138 0q11 150 25.5 523t14.5 487q26 -1 40 -1q15 0 41 1q-14 -190 -27.5 -518t-13.5 -492q-26 1 -40 1t-40 -1zM268 1137q-8 2 -20 2q-13 0 -21 -2l-57 100l-107 179q25 -1 58 -1t58 1z" />
    <glyph glyph-name="iacute" unicode="&#xed;" horiz-adv-x="382" 
d="M134 0q11 150 25.5 523t14.5 487q26 -1 40 -1q15 0 41 1q-14 -190 -27.5 -518t-13.5 -492q-26 1 -40 1t-40 -1zM157 1137q15 50 32 101l57 178q25 -1 58 -1t58 1l-81 -134q-57 -97 -83 -145q-8 2 -21 2q-12 0 -20 -2z" />
    <glyph glyph-name="icircumflex" unicode="&#xee;" horiz-adv-x="383" 
d="M158 0q11 150 25.5 523t14.5 487q26 -1 40 -1q15 0 41 1q-14 -190 -27.5 -518t-13.5 -492q-26 1 -40 1t-40 -1zM47 1158q92 158 134 237q33 -1 65 -1t65 1q52 -103 126 -237q-17 1 -29 1q-11 0 -28 -1l-134 187l-148 -187q-14 1 -26 1t-25 -1z" />
    <glyph glyph-name="idieresis" unicode="&#xef;" horiz-adv-x="383" 
d="M169 0q11 150 25.5 523t14.5 487q26 -1 40 -1q15 0 41 1q-14 -190 -27.5 -518t-13.5 -492q-26 1 -40 1t-40 -1zM323 1227l3 99q25 -1 51 -1t51 1l-3 -99q-25 1 -51 1q-27 0 -51 -1zM71 1227l3 99q25 -1 51 -1t51 1l-3 -99q-25 1 -51 1q-27 0 -51 -1z" />
    <glyph glyph-name="eth" unicode="&#xf0;" horiz-adv-x="1152" 
d="M405 1401q26 19 56 50l117 -137l125 104q16 -23 37 -45l-126 -99l155 -169q107 -115 155.5 -177t78 -121t43 -128t13.5 -141q0 -122 -37.5 -233.5t-104.5 -187t-158.5 -106.5t-194.5 -31q-69 0 -137 15.5t-129 52.5t-108 98t-72 147.5t-25 176.5q0 163 59 299.5t181 199
t262 62.5q44 0 91.5 -6.5t83.5 -23.5l-209 231l-125 -105q-15 23 -37 46q45 33 126 98zM587 975q-119 0 -221 -58t-150 -177t-48 -261q0 -100 27.5 -188t88.5 -148.5t131.5 -84t148.5 -23.5q89 0 167 29t137.5 97t87.5 167t28 210q0 103 -27.5 193.5t-85.5 145t-132 76.5
t-152 22z" />
    <glyph glyph-name="ntilde" unicode="&#xf1;" horiz-adv-x="1167" 
d="M120 0l34 611l9 287q2 77 2 112q26 -1 39 -1q12 0 38 1l-13 -228q22 47 36.5 71.5t39.5 52.5t59.5 52.5t83 41t99.5 24t101 7.5q84 0 163 -19t131 -65.5t71.5 -107t19.5 -129.5q0 -31 -3 -92l-21 -455l-4 -163q-20 1 -39 1t-38 -1q10 125 16 239l14 256q8 142 8 205
q0 66 -19 118t-65.5 86.5t-110.5 50t-132 15.5q-95 0 -168 -26q-69 -25 -121 -73.5t-85 -122.5q-25 -54 -38 -151q-12 -84 -19.5 -274.5t-7.5 -322.5q-26 1 -40 1t-40 -1zM386 1177q0 39 2 68.5t8.5 53.5t18.5 38t30 23t36 9q28 0 61 -17t112 -78q21 -17 36.5 -25.5
t30.5 -8.5q18 0 31 10t19.5 32.5t6.5 75.5q17 -1 29 -1t28 1q-1 -78 -13.5 -115.5t-33.5 -55.5t-52 -18q-21 0 -43.5 10t-71.5 45q-71 52 -92 64t-37 12q-11 0 -21 -4.5t-17 -17t-10 -32.5t-3 -69q-17 1 -28 1t-27 -1z" />
    <glyph glyph-name="ograve" unicode="&#xf2;" horiz-adv-x="1152" 
d="M589 1031q93 0 180 -26t153.5 -88.5t101.5 -163.5t35 -214q0 -122 -37 -234t-105 -187.5t-159.5 -106.5t-194.5 -31q-72 0 -141.5 16.5t-130 55.5t-106 101t-69 147t-23.5 177q0 161 60 294.5t179.5 196.5t256.5 63zM587 975q-119 0 -221 -58t-150 -177t-48 -261
q0 -100 27.5 -188t88.5 -148.5t131.5 -84t148.5 -23.5q89 0 167 29t137.5 97t87.5 167t28 210q0 103 -27.5 193.5t-85.5 145t-132 76.5t-152 22zM644 1137q-8 2 -20 2q-13 0 -21 -2l-57 100l-107 179q25 -1 58 -1t58 1z" />
    <glyph glyph-name="oacute" unicode="&#xf3;" horiz-adv-x="1152" 
d="M589 1031q93 0 180 -26t153.5 -88.5t101.5 -163.5t35 -214q0 -122 -37 -234t-105 -187.5t-159.5 -106.5t-194.5 -31q-72 0 -141.5 16.5t-130 55.5t-106 101t-69 147t-23.5 177q0 161 60 294.5t179.5 196.5t256.5 63zM587 975q-119 0 -221 -58t-150 -177t-48 -261
q0 -100 27.5 -188t88.5 -148.5t131.5 -84t148.5 -23.5q89 0 167 29t137.5 97t87.5 167t28 210q0 103 -27.5 193.5t-85.5 145t-132 76.5t-152 22zM542 1137q15 50 32 101l57 178q25 -1 58 -1t58 1l-81 -134q-57 -97 -83 -145q-8 2 -21 2q-12 0 -20 -2z" />
    <glyph glyph-name="ocircumflex" unicode="&#xf4;" horiz-adv-x="1152" 
d="M589 1031q93 0 180 -26t153.5 -88.5t101.5 -163.5t35 -214q0 -122 -37 -234t-105 -187.5t-159.5 -106.5t-194.5 -31q-72 0 -141.5 16.5t-130 55.5t-106 101t-69 147t-23.5 177q0 161 60 294.5t179.5 196.5t256.5 63zM587 975q-119 0 -221 -58t-150 -177t-48 -261
q0 -100 27.5 -188t88.5 -148.5t131.5 -84t148.5 -23.5q89 0 167 29t137.5 97t87.5 167t28 210q0 103 -27.5 193.5t-85.5 145t-132 76.5t-152 22zM415 1158q92 158 134 237q33 -1 65 -1t65 1q52 -103 126 -237q-17 1 -29 1q-11 0 -28 -1l-134 187l-148 -187q-14 1 -26 1
t-25 -1z" />
    <glyph glyph-name="otilde" unicode="&#xf5;" horiz-adv-x="1152" 
d="M589 1031q93 0 180 -26t153.5 -88.5t101.5 -163.5t35 -214q0 -122 -37 -234t-105 -187.5t-159.5 -106.5t-194.5 -31q-72 0 -141.5 16.5t-130 55.5t-106 101t-69 147t-23.5 177q0 161 60 294.5t179.5 196.5t256.5 63zM587 975q-119 0 -221 -58t-150 -177t-48 -261
q0 -100 27.5 -188t88.5 -148.5t131.5 -84t148.5 -23.5q89 0 167 29t137.5 97t87.5 167t28 210q0 103 -27.5 193.5t-85.5 145t-132 76.5t-152 22zM379 1177q0 39 2 68.5t8.5 53.5t18.5 38t30 23t36 9q28 0 61 -17t112 -78q21 -17 36.5 -25.5t30.5 -8.5q18 0 31 10t19.5 32.5
t6.5 75.5q17 -1 29 -1t28 1q-1 -78 -13.5 -115.5t-33.5 -55.5t-52 -18q-21 0 -43.5 10t-71.5 45q-71 52 -92 64t-37 12q-11 0 -21 -4.5t-17 -17t-10 -32.5t-3 -69q-17 1 -28 1t-27 -1z" />
    <glyph glyph-name="odieresis" unicode="&#xf6;" horiz-adv-x="1152" 
d="M589 1031q93 0 180 -26t153.5 -88.5t101.5 -163.5t35 -214q0 -122 -37 -234t-105 -187.5t-159.5 -106.5t-194.5 -31q-72 0 -141.5 16.5t-130 55.5t-106 101t-69 147t-23.5 177q0 161 60 294.5t179.5 196.5t256.5 63zM587 975q-119 0 -221 -58t-150 -177t-48 -261
q0 -100 27.5 -188t88.5 -148.5t131.5 -84t148.5 -23.5q89 0 167 29t137.5 97t87.5 167t28 210q0 103 -27.5 193.5t-85.5 145t-132 76.5t-152 22zM677 1227l3 99q25 -1 51 -1t51 1l-3 -99q-25 1 -51 1q-27 0 -51 -1zM425 1227l3 99q25 -1 51 -1t51 1l-3 -99q-25 1 -51 1
q-27 0 -51 -1z" />
    <glyph glyph-name="divide" unicode="&#xf7;" 
d="M519 956l5 94q23 -2 47 -2t47 2l-5 -94q-23 2 -47 2q-23 0 -47 -2zM125 736q181 -5 433 -5q247 0 433 5q-5 -35 -5 -66q-181 6 -433 6q-248 0 -433 -6q5 39 5 66zM495 357l4 93q24 -1 47 -1q24 0 48 1l-5 -93q-24 1 -47 1q-24 0 -47 -1z" />
    <glyph glyph-name="oslash" unicode="&#xf8;" horiz-adv-x="1152" 
d="M838 976l84 137q21 -2 35 -2q15 0 35 2l-103 -167q85 -62 127.5 -173t42.5 -235q0 -115 -33 -221t-97.5 -185.5t-157.5 -115.5t-201 -36q-134 0 -241 51l-88 -143q-20 1 -38 1t-37 -1l108 176q-95 69 -138 178.5t-43 229.5q0 95 20.5 186t60.5 155.5t102.5 116.5
t145.5 76.5t175 24.5q133 0 241 -55zM806 925q-41 24 -97.5 37t-112.5 13q-92 0 -172 -29.5t-141 -98.5t-88 -166t-27 -202q0 -240 141 -360zM855 890l-494 -806q58 -31 108.5 -40t96.5 -9q122 0 214.5 52t148 169t55.5 281q0 75 -13 143.5t-44 120.5t-72 89z" />
    <glyph glyph-name="ugrave" unicode="&#xf9;" horiz-adv-x="1169" 
d="M1006 0q-20 1 -37 1t-37 -1l8 217q-23 -51 -37.5 -73.5t-37.5 -47.5t-57.5 -47.5t-81.5 -38.5t-96.5 -23t-99.5 -7q-86 0 -160.5 19t-132 66t-78.5 109.5t-21 141.5q0 61 13.5 301.5t13.5 392.5q26 -1 39 -1t39 1q-8 -86 -23.5 -357t-15.5 -339q0 -76 20 -129t69.5 -87.5
t112 -48.5t128.5 -14q69 0 132.5 17.5t105.5 43.5t74 64q37 44 63 102q23 51 34 126.5t19 273.5q7 190 8 348q27 -1 40 -1t39 1l-37 -700l-4 -151q-2 -93 -2 -159zM653 1137q-8 2 -20 2q-13 0 -21 -2l-57 100l-107 179q25 -1 58 -1t58 1z" />
    <glyph glyph-name="uacute" unicode="&#xfa;" horiz-adv-x="1169" 
d="M1006 0q-20 1 -37 1t-37 -1l8 217q-23 -51 -37.5 -73.5t-37.5 -47.5t-57.5 -47.5t-81.5 -38.5t-96.5 -23t-99.5 -7q-86 0 -160.5 19t-132 66t-78.5 109.5t-21 141.5q0 61 13.5 301.5t13.5 392.5q26 -1 39 -1t39 1q-8 -86 -23.5 -357t-15.5 -339q0 -76 20 -129t69.5 -87.5
t112 -48.5t128.5 -14q69 0 132.5 17.5t105.5 43.5t74 64q37 44 63 102q23 51 34 126.5t19 273.5q7 190 8 348q27 -1 40 -1t39 1l-37 -700l-4 -151q-2 -93 -2 -159zM550 1137q15 50 32 101l57 178q25 -1 58 -1t58 1l-81 -134q-57 -97 -83 -145q-8 2 -21 2q-12 0 -20 -2z" />
    <glyph glyph-name="ucircumflex" unicode="&#xfb;" horiz-adv-x="1169" 
d="M1006 0q-20 1 -37 1t-37 -1l8 217q-23 -51 -37.5 -73.5t-37.5 -47.5t-57.5 -47.5t-81.5 -38.5t-96.5 -23t-99.5 -7q-86 0 -160.5 19t-132 66t-78.5 109.5t-21 141.5q0 61 13.5 301.5t13.5 392.5q26 -1 39 -1t39 1q-8 -86 -23.5 -357t-15.5 -339q0 -76 20 -129t69.5 -87.5
t112 -48.5t128.5 -14q69 0 132.5 17.5t105.5 43.5t74 64q37 44 63 102q23 51 34 126.5t19 273.5q7 190 8 348q27 -1 40 -1t39 1l-37 -700l-4 -151q-2 -93 -2 -159zM424 1158q92 158 134 237q33 -1 65 -1t65 1q52 -103 126 -237q-17 1 -29 1q-11 0 -28 -1l-134 187l-148 -187
q-14 1 -26 1t-25 -1z" />
    <glyph glyph-name="udieresis" unicode="&#xfc;" horiz-adv-x="1169" 
d="M1006 0q-20 1 -37 1t-37 -1l8 217q-23 -51 -37.5 -73.5t-37.5 -47.5t-57.5 -47.5t-81.5 -38.5t-96.5 -23t-99.5 -7q-86 0 -160.5 19t-132 66t-78.5 109.5t-21 141.5q0 61 13.5 301.5t13.5 392.5q26 -1 39 -1t39 1q-8 -86 -23.5 -357t-15.5 -339q0 -76 20 -129t69.5 -87.5
t112 -48.5t128.5 -14q69 0 132.5 17.5t105.5 43.5t74 64q37 44 63 102q23 51 34 126.5t19 273.5q7 190 8 348q27 -1 40 -1t39 1l-37 -700l-4 -151q-2 -93 -2 -159zM687 1227l3 99q25 -1 51 -1t51 1l-3 -99q-25 1 -51 1q-27 0 -51 -1zM435 1227l3 99q25 -1 51 -1t51 1l-3 -99
q-25 1 -51 1q-27 0 -51 -1z" />
    <glyph glyph-name="yacute" unicode="&#xfd;" horiz-adv-x="912" 
d="M-79 -465q0 33 -6 78q31 -14 51 -20.5t48.5 -11t52.5 -4.5q57 0 107 29t101 118t119 245l-220 613l-158 428q29 -1 48 -1t47 1l18 -71q11 -41 25 -83q18 -58 53 -155l227 -649l316 704q43 97 60 140t41 114q29 -1 45 -1q17 0 46 1l-183 -397l-195 -421l-187 -412
q-44 -95 -76 -140q-26 -35 -54 -60q-21 -18 -47 -31q-31 -16 -67 -24q-39 -10 -80 -10q-63 0 -132 20zM421 1137q15 50 32 101l57 178q25 -1 58 -1t58 1l-81 -134q-57 -97 -83 -145q-8 2 -21 2q-12 0 -20 -2z" />
    <glyph glyph-name="thorn" unicode="&#xfe;" horiz-adv-x="1158" 
d="M120 -444l19 364l36 1041l2 214q2 156 2 190q26 -1 41 -1t41 1l-8 -134q-2 -44 -3 -86l-6 -181q41 17 69.5 26.5t74.5 19t100.5 15.5t108.5 6q105 0 193.5 -29t149.5 -93.5t93 -161.5t32 -208q0 -162 -62.5 -297t-169 -198.5t-237.5 -63.5q-59 0 -116 13t-104.5 39.5
t-81 65t-77.5 120.5l-16 -530v-34q0 -34 1 -98q-26 1 -41 1t-41 -1zM245 904q-5 -56 -6 -79l-10 -284q-2 -61 -2 -84q0 -88 18 -162.5t72 -135.5t127.5 -92.5t152.5 -31.5q114 0 203.5 61.5t139 179.5t49.5 259q0 133 -46 234.5t-133.5 153.5t-206.5 52q-44 0 -92.5 -5
t-99 -15.5t-83 -21t-83.5 -29.5z" />
    <glyph glyph-name="ydieresis" unicode="&#xff;" horiz-adv-x="912" 
d="M-79 -465q0 33 -6 78q31 -14 51 -20.5t48.5 -11t52.5 -4.5q57 0 107 29t101 118t119 245l-220 613l-158 428q29 -1 48 -1t47 1l18 -71q11 -41 25 -83q18 -58 53 -155l227 -649l316 704q43 97 60 140t41 114q29 -1 45 -1q17 0 46 1l-183 -397l-195 -421l-187 -412
q-44 -95 -76 -140q-26 -35 -54 -60q-21 -18 -47 -31q-31 -16 -67 -24q-39 -10 -80 -10q-63 0 -132 20zM556 1227l3 99q25 -1 51 -1t51 1l-3 -99q-25 1 -51 1q-27 0 -51 -1zM304 1227l3 99q25 -1 51 -1t51 1l-3 -99q-25 1 -51 1q-27 0 -51 -1z" />
    <glyph glyph-name="dotlessi" unicode="&#x131;" horiz-adv-x="382" 
d="M134 0q11 150 25.5 523t14.5 487q26 -1 40 -1q15 0 41 1q-14 -190 -27.5 -518t-13.5 -492q-26 1 -40 1t-40 -1z" />
    <glyph glyph-name="Lslash" unicode="&#x141;" horiz-adv-x="923" 
d="M617 983q-1 -25 -1 -45t1 -45q-137 -99 -362 -276l-21 -554l206 -1q220 0 303 2t162 7q-5 -40 -5 -71q-211 1 -356 1l-396 -1q14 192 18 273l13 297l-161 -131q1 25 1 45t-1 45l164 122l10 279q2 54 3 134l5 301q26 -1 45 -1t44 1l-31 -669z" />
    <glyph glyph-name="lslash" unicode="&#x142;" horiz-adv-x="418" 
d="M29 521q2 27 2 45q0 27 -1 45l150 112q13 309 19 642q26 -1 41 -1t41 1l-24 -457l-5 -139l158 129q-1 -29 -1 -45q0 -22 1 -45l-161 -120l-22 -688q-26 1 -41 1t-41 -1l24 461l7 180z" />
    <glyph glyph-name="OE" unicode="&#x152;" horiz-adv-x="2077" 
d="M1928 71q-5 -40 -5 -71q-222 1 -622 1q-103 0 -140.5 -0.5t-111.5 -3.5l-230 -9q-41 -2 -61 -2q-136 0 -261.5 43t-216 133t-132.5 220t-42 273q0 108 24.5 211t67.5 187q42 80 98.5 139.5t129.5 101.5q70 39 156 60q107 25 210 25q43 0 206 -7.5t426 -7.5l560 1
q-5 -40 -5 -71q-160 7 -332 7l-331 -1q-8 0 -74 3l-24 -579q232 -2 282 -2q302 0 401 10q-5 -39 -5 -74q-149 5 -258 5q-48 0 -216 -2.5t-208 -2.5l-24 -595l103 -2q363 0 448 2t187 8zM1114 63l52 1238q-234 13 -286.5 15t-83.5 2q-116 0 -225 -32t-198.5 -117t-140 -224.5
t-50.5 -288.5q0 -109 27.5 -212.5t84 -182t127.5 -125.5t160.5 -67.5t188.5 -20.5q52 0 113 3z" />
    <glyph glyph-name="oe" unicode="&#x153;" horiz-adv-x="1907" 
d="M1740 93q-7 -35 -11 -74q-77 -20 -152.5 -30t-128.5 -10q-51 0 -101 10.5t-94.5 29.5t-82 45.5t-65.5 58.5t-48 70t-44 110q-23 -69 -45 -113.5t-62 -85.5t-92 -67.5t-115 -42t-133 -15.5q-99 0 -190 31.5t-156.5 98t-96 165t-30.5 206.5q0 119 36.5 228.5t105 181.5
t162.5 106.5t195 34.5q66 0 127.5 -14t111.5 -39.5t86 -59t59.5 -74.5t49.5 -121q29 75 54 116t62.5 78t87.5 62.5t106.5 38.5t116.5 13q101 0 190 -38t144 -128.5t55 -235.5q0 -19 -2 -43l-779 -2q-6 -69 -6 -113q0 -118 50.5 -223t139 -159t213.5 -54q55 0 115 11.5
t167 46.5zM1069 637l702 2q-1 129 -42.5 200t-113.5 103.5t-157 32.5q-57 0 -111.5 -14.5t-98.5 -40.5t-77.5 -63t-55.5 -82t-46 -138zM597 975q-92 0 -176.5 -33.5t-142.5 -100t-84 -161.5t-26 -203q0 -93 22 -173t78.5 -143t132 -94.5t167.5 -31.5q96 0 179.5 36.5
t135 106.5t77.5 170t26 196q0 133 -50 237t-139 149t-200 45z" />
    <glyph glyph-name="Scaron" unicode="&#x160;" horiz-adv-x="905" 
d="M76 42q0 39 -6 90q189 -91 345 -91q89 0 161 29t111.5 86.5t39.5 131.5q0 37 -10.5 70t-34.5 68t-83.5 89.5t-197.5 169.5l-79 66q-41 36 -79 75t-63 72.5t-37.5 60t-19.5 58.5t-7 66q0 81 44 151t131 111t221 41q93 0 237 -27q1 -38 9 -84q-92 29 -153 39t-116 10
q-99 0 -163 -32.5t-99 -87t-35 -114.5q0 -32 9 -62.5t29.5 -62t54.5 -69t89 -85.5l145 -123l126 -107q35 -31 67 -67t52 -71.5t29.5 -73.5t9.5 -80q0 -94 -47.5 -165t-140 -107.5t-207.5 -36.5q-74 0 -144 11.5t-188 50.5zM720 1751q-92 -158 -134 -237q-33 1 -65 1t-65 -1
q-51 104 -126 237q17 -1 29 -1q11 0 28 1l134 -187l148 187q14 -1 26 -1t25 1z" />
    <glyph glyph-name="scaron" unicode="&#x161;" horiz-adv-x="736" 
d="M60 19q-2 48 -8 85q79 -35 149 -49t128 -14q77 0 131.5 22t82.5 65t28 90q0 21 -4.5 40.5t-14.5 39t-22.5 36t-34.5 37.5l-53 47l-94 79q-64 53 -105.5 91.5t-69 78t-39 72.5t-11.5 67q0 58 36.5 112.5t105 83.5t173.5 29q88 0 198 -23q1 -44 6 -85q-64 27 -114.5 36.5
t-102.5 9.5q-65 0 -120 -19.5t-82.5 -57t-27.5 -81.5q0 -24 6 -45t19 -42.5t33.5 -44t53 -52t93.5 -80.5l92 -78q30 -27 51.5 -49t41 -48.5t31.5 -51.5t18 -50.5t6 -51.5q0 -63 -37 -119t-107.5 -88t-169.5 -32q-37 0 -92.5 6t-89 12.5t-84.5 21.5zM624 1395
q-92 -158 -134 -237q-33 1 -65 1t-65 -1q-51 104 -126 237q17 -1 29 -1q11 0 28 1l134 -187l148 187q14 -1 26 -1t25 1z" />
    <glyph glyph-name="Ydieresis" unicode="&#x178;" horiz-adv-x="987" 
d="M408 0l30 433l10 186l-134 238l-296 508q26 -1 45 -1q20 0 45 1l43 -81q13 -25 83 -145l258 -451l239 358l147 229l55 90q26 -1 46 -1t46 1l-504 -750q-1 -49 -4 -93l-13 -257q-3 -57 -5 -126l-2 -139q-26 1 -45 1t-44 -1zM608 1583l3 99q25 -1 51 -1t51 1l-3 -99
q-25 1 -51 1q-27 0 -51 -1zM356 1583l3 99q25 -1 51 -1t51 1l-3 -99q-25 1 -51 1q-27 0 -51 -1z" />
    <glyph glyph-name="Zcaron" unicode="&#x17d;" horiz-adv-x="1095" 
d="M54 0q4 50 4 92l898 1211l-63 2l-329 -1q-146 0 -233 -2.5t-192 -8.5q3 30 3 61v11q171 -1 467 -1l275 1h146q-4 -44 -4 -91l-823 -1112l-72 -101q193 -1 449 -1q143 0 217.5 1.5t173.5 8.5q-3 -30 -3 -59v-11q-177 1 -431 1q-350 0 -483 -1zM784 1751
q-92 -158 -134 -237q-33 1 -65 1t-65 -1q-51 104 -126 237q17 -1 29 -1q11 0 28 1l134 -187l148 187q14 -1 26 -1t25 1z" />
    <glyph glyph-name="zcaron" unicode="&#x17e;" horiz-adv-x="838" 
d="M38 0q3 45 3 87l123 156l476 624l61 83q-115 3 -212 3q-195 0 -377 -10q3 36 3 67q168 -1 338 -1l319 1q-3 -30 -3 -76v-11l-659 -862q93 -4 203 -4q260 0 417 12q-4 -40 -4 -69q-162 1 -322 1h-293zM634 1395q-92 -158 -134 -237q-33 1 -65 1t-65 -1q-51 104 -126 237
q17 -1 29 -1q11 0 28 1l134 -187l148 187q14 -1 26 -1t25 1z" />
    <glyph glyph-name="florin" unicode="&#x192;" 
d="M627 1106q133 0 274 4q-6 -25 -10 -55q-153 4 -272 4l-173 -973q-12 -61 -25.5 -117.5t-31.5 -95t-41 -64t-52.5 -43t-74 -28.5t-95.5 -11q-20 0 -39 1.5t-33 3.5t-29 6l-35 9q7 28 11 58q71 -20 129 -20q64 0 108.5 21.5t70.5 62.5q29 44 45 114.5t44 224.5l150 850
q-63 -1 -134 -3q7 25 12 55q96 -4 130 -4q12 71 23 127t27 98.5t41 74t57.5 52t79 32.5t99.5 12q22 0 52.5 -3t94.5 -18q-7 -31 -11 -62q-83 22 -150 22q-43 0 -76.5 -10.5t-58 -30t-39.5 -44.5q-22 -37 -34 -84q-8 -29 -34 -166z" />
    <glyph glyph-name="circumflex" unicode="&#x2c6;" horiz-adv-x="1024" 
d="M351 1158q92 158 134 237q33 -1 65 -1t65 1q52 -103 126 -237q-17 1 -29 1q-11 0 -28 -1l-134 187l-148 -187q-14 1 -26 1t-25 -1z" />
    <glyph glyph-name="caron" unicode="&#x2c7;" horiz-adv-x="1024" 
d="M727 1395q-92 -158 -134 -237q-33 1 -65 1t-65 -1q-51 104 -126 237q17 -1 29 -1q11 0 28 1l134 -187l148 187q14 -1 26 -1t25 1z" />
    <glyph glyph-name="macron" unicode="&#x2c9;" horiz-adv-x="1024" 
d="M314 1234q4 31 5 66q93 -3 228 -3q134 0 228 3q-5 -41 -5 -66q-82 2 -228 2q-145 0 -228 -2z" />
    <glyph glyph-name="breve" unicode="&#x2d8;" horiz-adv-x="1024" 
d="M346 1371q16 -1 28 -1q11 0 27 1q7 -62 47 -91.5t102 -29.5t102 30t46 91q16 -1 28 -1t27 1q-6 -95 -60 -141.5t-143 -46.5q-91 0 -144.5 47.5t-59.5 140.5z" />
    <glyph glyph-name="dotaccent" unicode="&#x2d9;" horiz-adv-x="1024" 
d="M484 1225l3 104q26 -2 53 -2q28 0 54 2l-3 -104q-26 1 -53 1q-28 0 -54 -1z" />
    <glyph glyph-name="ring" unicode="&#x2da;" horiz-adv-x="1024" 
d="M717 1311q0 -48 -24 -89t-65 -65t-89 -24q-47 0 -88 24t-65 65t-24 89q0 47 24 88.5t65 65t88 23.5q48 0 89 -23.5t65 -65t24 -88.5zM658 1310q0 48 -35 82t-84 34q-48 0 -83 -34t-35 -82t35 -82.5t83 -34.5q49 0 84 34.5t35 82.5z" />
    <glyph glyph-name="ogonek" unicode="&#x2db;" horiz-adv-x="1024" 
d="M709 10h73q-41 -32 -56.5 -51.5t-22.5 -38.5t-7 -36q0 -28 21 -51t64 -23q51 0 91 14q-7 -26 -8.5 -32.5t-5.5 -33.5q-51 -11 -89 -11q-73 0 -108.5 39t-35.5 90q0 36 18.5 69t65.5 65z" />
    <glyph glyph-name="tilde" unicode="&#x2dc;" horiz-adv-x="1024" 
d="M315 1177q0 39 2 68.5t8.5 53.5t18.5 38t30 23t36 9q28 0 61 -17t112 -78q21 -17 36.5 -25.5t30.5 -8.5q18 0 31 10t19.5 32.5t6.5 75.5q17 -1 29 -1t28 1q-1 -78 -13.5 -115.5t-33.5 -55.5t-52 -18q-21 0 -43.5 10t-71.5 45q-71 52 -92 64t-37 12q-11 0 -21 -4.5
t-17 -17t-10 -32.5t-3 -69q-17 1 -28 1t-27 -1z" />
    <glyph glyph-name="hungarumlaut" unicode="&#x2dd;" horiz-adv-x="1024" 
d="M400 1144l33 104q13 37 51 161q26 -1 59 -1q34 0 58 1l-76 -125q-54 -92 -80 -140q-9 2 -22 2q-14 0 -23 -2zM600 1144q14 48 31 98.5t53 166.5q25 -1 59 -1q33 0 58 1l-77 -128l-79 -137q-9 2 -23 2q-13 0 -22 -2z" />
    <glyph glyph-name="pi" unicode="&#x3c0;" horiz-adv-x="1075" 
d="M196 0v917h-149v62h981v-62h-147v-917h-68v917h-549v-917h-68z" />
    <glyph glyph-name="endash" unicode="&#x2013;" 
d="M96 490q5 41 5 71q202 -5 443 -5q233 0 443 5q-4 -40 -4 -71q-203 6 -443 6q-234 0 -444 -6z" />
    <glyph glyph-name="emdash" unicode="&#x2014;" horiz-adv-x="1398" 
d="M-3 490q5 41 5 71q306 -5 699 -5q335 0 699 5q-4 -40 -4 -71q-320 6 -699 6q-372 0 -700 -6z" />
    <glyph glyph-name="quoteleft" unicode="&#x2018;" horiz-adv-x="399" 
d="M106 1053q26 46 58 97t47 78l80 137q17 -1 28 -1t27 1q-67 -186 -104 -312q-34 2 -68 2t-68 -2z" />
    <glyph glyph-name="quoteright" unicode="&#x2019;" horiz-adv-x="399" 
d="M346 1365l-58 -96q-32 -51 -47 -78l-79 -138q-17 2 -28 2q-12 0 -28 -2q68 187 104 312q34 -1 68 -1q35 0 68 1z" />
    <glyph glyph-name="quotesinglbase" unicode="&#x201a;" horiz-adv-x="399" 
d="M271 108l-58 -96q-32 -51 -47 -78l-79 -138q-17 2 -28 2q-12 0 -28 -2q68 187 104 312q34 -1 68 -1q35 0 68 1z" />
    <glyph glyph-name="quotedblleft" unicode="&#x201c;" horiz-adv-x="658" 
d="M365 1053q26 46 58 97t47 78l80 137q17 -1 27 -1q12 0 28 1q-68 -186 -104 -312q-34 2 -68 2t-68 -2zM106 1053q26 46 58 97t47 78l80 137q17 -1 28 -1t27 1q-67 -186 -104 -312q-34 2 -68 2t-68 -2z" />
    <glyph glyph-name="quotedblright" unicode="&#x201d;" horiz-adv-x="657" 
d="M605 1365l-58 -96q-32 -51 -47 -78l-80 -138q-17 2 -28 2t-27 -2q67 187 104 312q34 -1 68 -1t68 1zM346 1365l-58 -96q-32 -51 -47 -78l-79 -138q-17 2 -28 2q-12 0 -28 -2q68 187 104 312q34 -1 68 -1q35 0 68 1z" />
    <glyph glyph-name="quotedblbase" unicode="&#x201e;" horiz-adv-x="658" 
d="M530 108l-58 -96q-32 -51 -47 -78l-80 -138q-17 2 -27 2q-12 0 -28 -2q68 187 104 312q34 -1 68 -1t68 1zM271 108l-58 -96q-32 -51 -47 -78l-79 -138q-17 2 -28 2q-12 0 -28 -2q68 187 104 312q34 -1 68 -1q35 0 68 1z" />
    <glyph glyph-name="dagger" unicode="&#x2020;" horiz-adv-x="1043" 
d="M574 884l202 1q56 0 207 4q-4 -31 -4 -72q-191 5 -408 5l-24 -631l-20 -635q-26 2 -39 2t-39 -2l45 1266l-205 -1q-50 0 -207 -4q4 30 4 72q191 -5 411 -5l11 333q2 44 4 148q27 -1 40 -1q15 0 41 1z" />
    <glyph glyph-name="daggerdbl" unicode="&#x2021;" horiz-adv-x="1043" 
d="M574 884l202 1q57 0 207 4q-4 -31 -4 -72q-191 5 -408 5l-26 -702l208 1q51 0 208 4q-4 -30 -4 -72l-237 5l-177 1l-16 -503q-26 2 -39 2t-39 -2l19 502l-202 -1q-56 0 -206 -4q4 31 4 72q191 -5 406 -5l25 702l-206 -1q-50 0 -207 -4q4 30 4 72q191 -5 411 -5l11 333
q2 44 4 148q27 -1 41 -1t40 1z" />
    <glyph glyph-name="bullet" unicode="&#x2022;" horiz-adv-x="1374" 
d="M968 696q0 -76 -37.5 -143t-103.5 -105t-140 -38q-75 0 -140.5 38.5t-103.5 105.5t-38 142q0 76 37.5 142.5t103.5 105t143 38.5q73 0 138 -38t103 -104.5t38 -143.5z" />
    <glyph glyph-name="ellipsis" unicode="&#x2026;" horiz-adv-x="1180" 
d="M120 0q3 41 3.5 65t1.5 44q36 -1 56 -1q21 0 56 1q-2 -30 -3 -57.5t-3 -51.5q-35 1 -55 1q-21 0 -56 -1zM510 0q3 41 3.5 65t2.5 44q35 -1 56 -1t55 1q-2 -30 -3 -57.5t-3 -51.5q-35 1 -55 1q-21 0 -56 -1zM901 0q2 41 3 65t2 44q36 -1 56 -1q21 0 56 1q-2 -30 -3 -57.5
t-3 -51.5q-35 1 -55 1q-21 0 -56 -1z" />
    <glyph glyph-name="perthousand" unicode="&#x2030;" horiz-adv-x="2237" 
d="M368 1379q83 0 141 -46.5t86 -135.5t28 -210q0 -140 -35.5 -261.5t-99.5 -173.5t-156 -52q-87 0 -145.5 46t-86.5 133.5t-28 194.5q0 94 15.5 186.5t51.5 168t94.5 113t134.5 37.5zM366 1326q-66 0 -120.5 -49t-83.5 -152.5t-29 -250.5q0 -112 25.5 -182t72 -104.5
t103.5 -34.5q55 0 99.5 31t74 99t41 150t11.5 162q0 115 -23.5 184.5t-67.5 108t-103 38.5zM313 0l563 890l295 475q19 -1 38 -1q21 0 39 1l-537 -849l-320 -516q-19 1 -39 1q-22 0 -39 -1zM1229 866q83 0 141 -47t86 -135.5t28 -209.5q0 -140 -35.5 -261.5t-99.5 -174
t-156 -52.5q-87 0 -145.5 46.5t-86.5 134t-28 193.5q0 95 15.5 187.5t51.5 168t94.5 113t134.5 37.5zM1227 812q-66 0 -120.5 -48.5t-83.5 -152t-29 -251.5q0 -112 25.5 -181.5t72 -104t103.5 -34.5q55 0 99.5 31t74 98.5t41 150t11.5 162.5q0 114 -23.5 184t-67.5 108
t-103 38zM1920 866q83 0 141 -47t86 -135.5t28 -209.5q0 -140 -35.5 -261.5t-99.5 -174t-156 -52.5q-87 0 -145.5 46.5t-86.5 134t-28 193.5q0 95 15 187.5t51 168t95 113t135 37.5zM1918 812q-67 0 -121.5 -48.5t-83 -152t-28.5 -251.5q0 -112 25.5 -181.5t72 -104
t103.5 -34.5q55 0 99.5 31t74 98.5t41 150t11.5 162.5q0 114 -24 184t-67.5 108t-102.5 38z" />
    <glyph glyph-name="quilsinglleft" unicode="&#x2039;" horiz-adv-x="522" 
d="M388 883l-114 -244l-52 -116l42 -117q24 -68 45 -122l44 -115q-17 1 -32 1t-31 -1l-29 63q-11 25 -38 79l-103 212q84 136 203 360q17 -2 33 -2q17 0 32 2z" />
    <glyph glyph-name="quilsinglright" unicode="&#x203a;" horiz-adv-x="524" 
d="M159 883q17 -2 33 -2q17 0 32 2q105 -245 166 -360l-145 -246l-63 -108q-16 1 -31 1q-16 0 -31 -1l168 354l-40 117l-41 111z" />
    <glyph glyph-name="Euro" unicode="&#x20ac;" horiz-adv-x="1114" 
d="M1077 1270q-174 61 -297 61q-499 0 -559 -538h746l-11 -62h-739q-2 -21 -2 -67v-29h731l-10 -62h-719q37 -538 518 -538q136 0 326 65l-12 -75q-182 -45 -301 -45q-281 0 -436 150t-173 443h-98l10 62h86v14q0 58 2 82h-98l10 62h92q64 593 645 593q130 0 279 -36z" />
    <glyph glyph-name="trademark" unicode="&#x2122;" horiz-adv-x="1533" 
d="M632 587l10 87q2 19 9 102l45 588q26 -1 46 -1q19 0 43 1l256 -700l292 631l29 69q24 -1 44 -1q21 0 46 1l-5 -324q-2 -113 -2 -169q0 -173 4 -284l-37 1q-11 0 -36 -1q2 29 6.5 303.5t4.5 382.5q-7 -13 -80 -174l-232 -512q-25 1 -37 1t-36 -1l-80 218l-175 466
q-4 -35 -8 -103l-33 -466q-2 -42 -4 -115l-35 1zM245 587q13 177 30 723h-18q-113 0 -228 -5q3 28 3 59q159 -1 294 -1q169 0 259 1q-4 -33 -4 -46q0 -5 1 -13q-75 5 -221 5h-23q-6 -120 -17 -447q-6 -150 -6 -177l1 -99l-36 1z" />
    <glyph glyph-name="Omega" unicode="&#x2126;" horiz-adv-x="1374" 
d="M62 0v63h427q-67 37 -104 64q-65 48 -129 117.5t-108 148t-65 164.5t-21 180q0 186 82.5 335.5t225.5 237.5t317 88q172 0 315 -87t226.5 -237t83.5 -338q0 -81 -16.5 -156.5t-46.5 -141t-75 -126.5t-109 -121q-47 -44 -92 -75q-31 -21 -88 -53h427v-63h-522v59
q60 34 106 64.5t100 77.5t102 110t80.5 132t48 141.5t15.5 149.5q0 162 -69.5 296.5t-195.5 220t-290 85.5q-150 0 -277.5 -76.5t-203 -216.5t-75.5 -310q0 -76 16.5 -149t49 -142.5t79 -130.5t101.5 -109t101 -78t106 -65v-59h-522z" />
    <glyph glyph-name="partialdiff" unicode="&#x2202;" horiz-adv-x="1032" 
d="M211 1316l10 64q75 -11 128 -26q85 -23 162 -64t144.5 -102.5t123 -143t95 -183t56.5 -203.5t17 -188q0 -114 -26 -195.5t-85 -151t-143 -109.5t-173 -40q-115 0 -216 62.5t-159 168.5t-58 233q0 121 60 231t160.5 167.5t211.5 57.5q50 0 99 -11.5t92.5 -33.5t76.5 -55.5
t68 -90.5q-32 102 -56 160.5t-64 120.5t-87 111.5t-105.5 91t-115 67.5t-113.5 41q-37 10 -103 21zM878 446q0 107 -40 195.5t-123.5 142t-190.5 53.5q-76 0 -166 -44.5t-145.5 -146.5t-55.5 -214q0 -107 49.5 -200.5t134 -147t180.5 -53.5q68 0 134 29t119 86.5t78.5 136.5
t25.5 163z" />
    <glyph glyph-name="increment" unicode="&#x2206;" horiz-adv-x="1374" 
d="M76 0l575 1365h71l575 -1365h-1221zM175 64h1023l-512 1218z" />
    <glyph glyph-name="product" unicode="&#x220f;" horiz-adv-x="1391" 
d="M75 1536h1242v-64h-157v-1920h157v-64h-398v64h173v1920h-792v-1920h170v-64h-395v64h156v1920h-156v64z" />
    <glyph glyph-name="summation" unicode="&#x2211;" horiz-adv-x="1374" 
d="M1198 1536v-436h-65l-3 370h-983l521 -913l-521 -1005h1002l2 367h66v-431h-1145v75l516 994l-516 910v69h1126z" />
    <glyph glyph-name="minus" unicode="&#x2212;" 
d="M125 736q182 -5 433 -5q247 0 433 5q-5 -35 -5 -66q-181 6 -433 6q-248 0 -433 -6q5 39 5 66z" />
    <glyph glyph-name="fraction" unicode="&#x2215;" horiz-adv-x="202" 
d="M-347 0l549 880l208 336l89 149q20 -1 35 -1q16 0 36 1l-278 -441l-485 -786l-82 -138q-20 1 -36 1q-17 0 -36 -1z" />
    <glyph glyph-name="periodcentered" unicode="&#x2219;" horiz-adv-x="132" 
d="M11 638l6 116q41 -1 59 -1t59 1q-2 -28 -3 -57.5t-3 -58.5q-42 2 -59 2t-59 -2z" />
    <glyph glyph-name="radical" unicode="&#x221a;" horiz-adv-x="1374" 
d="M1369 1694v-63h-427l-513 -1631h-67l-204 652h-154v64h209l183 -593l119 394l371 1177h483z" />
    <glyph glyph-name="infinity" unicode="&#x221e;" horiz-adv-x="1374" 
d="M687 648q-81 -127 -163.5 -189t-191.5 -62q-84 0 -151 39.5t-102 111t-35 154.5q0 84 35 150t105 106.5t151 40.5q43 0 80.5 -10.5t75 -32t73 -55t63 -69t59.5 -84.5q63 98 119 150.5t111 76.5t120 24q88 0 155 -39t102.5 -110t35.5 -153q0 -86 -35 -154.5t-104.5 -107.5
t-151.5 -39q-61 0 -115 21.5t-113.5 76t-122.5 154.5zM651 697q-71 115 -145 178t-169 63q-63 0 -116 -30.5t-80.5 -87.5t-27.5 -123t26.5 -120t81.5 -87t118 -33q38 0 76.5 12t78 41.5t71.5 66.5t86 120zM723 698q73 -119 146.5 -180t166.5 -61q63 0 116 30.5t80.5 87.5
t27.5 123t-26 120t-81.5 87t-118.5 33q-37 0 -75 -11.5t-76.5 -40t-72.5 -67t-87 -121.5z" />
    <glyph glyph-name="integral" unicode="&#x222b;" horiz-adv-x="1032" 
d="M267 -489l22 60q28 -13 45.5 -17t33.5 -4q29 0 52 10.5t35 26t17.5 37t7.5 56t2 100.5v1455q0 11 1 76t5 89q6 32 19 55.5t34.5 42t52.5 28.5t69 10q21 0 43 -3.5t59 -19.5l-22 -60q-28 14 -45 17.5t-34 3.5q-24 0 -44 -7.5t-33 -19t-20.5 -27.5t-10.5 -37t-4.5 -68.5
t-1.5 -87.5v-1438q0 -114 -5 -157t-27 -73t-62 -50t-95 -20q-18 0 -39 3t-55 19z" />
    <glyph glyph-name="approxequal" unicode="&#x2248;" horiz-adv-x="1032" 
d="M76 712l-48 31q29 56 71 106.5t91.5 73t99.5 22.5q44 0 98.5 -19.5t150.5 -70.5t133.5 -61.5t71.5 -10.5q62 0 111 37.5t100 127.5l49 -29q-59 -111 -126 -156t-139 -45q-18 0 -39 3.5t-55.5 15t-62 24.5t-108.5 55t-119 53.5t-70 11.5q-59 0 -109 -40t-100 -129zM76 421
l-48 31q31 59 72 108.5t90.5 71.5t99.5 22q45 0 99.5 -20t147 -68.5t131.5 -61t76 -12.5q61 0 109.5 36.5t101.5 128.5l49 -29q-35 -67 -77.5 -113.5t-92 -67t-95.5 -20.5q-34 0 -73 11.5t-62 21t-148 74.5q-64 34 -101.5 45t-68.5 11q-59 0 -109.5 -40t-100.5 -129z" />
    <glyph glyph-name="notequal" unicode="&#x2260;" 
d="M577 840l64 181l36 103q31 -14 67 -22l-40 -107l-59 -154q144 2 168 2q108 0 196 2q-5 -35 -5 -66q-91 3 -203 3q-26 0 -177 3l-25 -67l-14 -38l-21 -59q171 3 200 3q125 0 227 3q-5 -36 -5 -66q-99 3 -228 3q-32 0 -213 2l-77 -218q-9 -25 -22 -66q-33 15 -68 22l99 262
q-141 -2 -165 -2q-105 0 -192 -3q5 38 5 66q85 -3 199 -3q29 0 175 -2l59 163q-182 -2 -196 -2q-123 0 -224 -4q5 39 5 66q99 -3 228 -3q14 0 206 -2z" />
    <glyph glyph-name="lessequal" unicode="&#x2264;" horiz-adv-x="1032" 
d="M959 1164v-68l-811 -350l811 -350v-69l-887 386v65zM959 266v-64h-887v64h887z" />
    <glyph glyph-name="greaterequal" unicode="&#x2265;" horiz-adv-x="1032" 
d="M72 327v69l811 350l-811 350v68l887 -387v-64zM72 202v64h887v-64h-887z" />
    <glyph glyph-name="lozenge" unicode="&#x25ca;" horiz-adv-x="1374" 
d="M687 1419l531 -736l-531 -736l-532 736zM687 1238l-404 -555l404 -554l403 554z" />
    <glyph glyph-name="fi" unicode="&#xf001;" horiz-adv-x="874" 
d="M143 0l18 354l18 600h-127q4 27 5 56h124l4 112q3 63 10 97q9 46 26.5 74.5t49 51.5t77.5 36.5t105 13.5q71 0 136 -20q2 -30 9 -69q-78 33 -145 33q-42 0 -77 -11.5t-55.5 -27.5t-35 -41t-21.5 -55t-10 -89q0 -12 -3 -105h298q-4 -26 -5 -56h-295l-23 -954q-26 1 -42 1
q-15 0 -41 -1zM661 1266l3 99q25 -1 51 -1t51 1l-3 -99q-25 2 -51 2q-27 0 -51 -2zM625 0q11 150 25.5 523t14.5 487q26 -1 40 -1q15 0 41 1q-14 -190 -27.5 -518t-13.5 -492q-26 1 -40 1t-40 -1z" />
    <glyph glyph-name="fl" unicode="&#xf002;" horiz-adv-x="881" 
d="M143 0l18 354l18 600h-127q4 27 5 56h124l4 112q3 63 10 97q9 46 26.5 74.5t49 51.5t77.5 36.5t105 13.5q71 0 136 -20q2 -30 9 -69q-78 33 -145 33q-42 0 -77 -11.5t-55.5 -27.5t-35 -41t-21.5 -55t-10 -89q0 -12 -3 -105h298q-4 -26 -5 -56h-295l-23 -954q-26 1 -42 1
q-15 0 -41 -1zM625 0q46 834 55 1365q26 -1 40 -1q15 0 41 1l-25 -487l-28 -878q-26 1 -42 1q-15 0 -41 -1z" />
    <glyph glyph-name="glyph1" horiz-adv-x="0" 
 />
    <glyph glyph-name="glyph2" horiz-adv-x="512" 
 />
  </font>
</defs>
</svg>
