<?xml version="1.0" encoding="utf-8"?>
<!DOCTYPE svg PUBLIC "-//W3C//DTD SVG 1.1//EN" "http://www.w3.org/Graphics/SVG/1.1/DTD/svg11.dtd">
<svg version="1.1" xmlns="http://www.w3.org/2000/svg" xmlns:xlink="http://www.w3.org/1999/xlink" x="0px" y="0px" width="1024px" height="1024px" viewBox="0 0 1024 1024" enable-background="new 0 0 1024 1024" xml:space="preserve">

	<polygon style="fill:#00bcd4; stroke: #00bcd4"/>

  <path d="M673.33504 708.893493l-313.504053 0c-57.976777 0-105.761948 48.137711-105.761948 106.146537l0 163.450283 523.649839 0 0-163.450283C777.782976 757.031204 731.247719 708.893493 673.33504 708.893493z" />
<path d="M516.550964 498.843855m-150.502457 0a4.696 4.696 0 1 0 301.004914 0 4.696 4.696 0 1 0 -301.004914 0Z" />
<path d="M288.361549 302.222779c0-31.952928-25.735407-57.784482-57.624237-57.784482l-172.424024 0C26.424458 244.438296 0.01602 270.3019 0.01602 302.222779l0 90.282245 288.345529 0L288.361549 302.222779z" />
<path d="M144.5253 128.260399m-82.782761 0a2.583 2.583 0 1 0 165.565522 0 2.583 2.583 0 1 0 -165.565522 0Z" />
<path d="M967.160961 244.438296l-172.424024 0c-31.88883 0-57.52809 25.831555-57.52809 57.784482l0 90.282245 286.775124 0L1023.983971 302.254828C1023.983971 270.3019 999.049791 244.438296 967.160961 244.438296z" />
<path d="M880.9169 128.260399m-82.782761 0a2.583 2.583 0 1 0 165.565522 0 2.583 2.583 0 1 0 -165.565522 0Z" />
<path d="M389.027694 250.687866l264.917655 0c18.267973 0 33.106695-14.422084 33.106695-32.722106 0-18.300022-14.838722-32.754155-33.106695-32.754155l-264.917655 0c-18.300022 0-33.106695 14.454133-33.106695 32.754155C355.921 236.233733 370.727672 250.687866 389.027694 250.687866z" />
<path d="M283.265746 671.684517c6.730306 0 13.52471-1.987043 19.42174-6.24957 14.806673-10.768489 18.075678-31.440143 7.371287-46.214766l-120.825013-166.815436c-10.768489-14.870771-31.440143-18.139777-46.246815-7.403336-14.838722 10.73644-18.107727 31.440143-7.371287 46.246815L256.408621 658.095709C262.914584 667.005352 273.042091 671.684517 283.265746 671.684517z" />
<path d="M863.57835 448.110169c-15.383556-9.935213-35.830866-5.384245-45.701981 9.999311l-104.223592 162.649056c-9.935213 15.351507-5.384245 35.862915 9.999311 45.798128 5.512441 3.4613 11.665863 5.159901 17.883384 5.159901 10.896686 0 21.601077-5.320146 27.882695-15.25536l104.191543-162.584958C883.480826 478.524741 878.993955 458.013333 863.57835 448.110169z" />


</svg>